<svg xmlns="http://www.w3.org/2000/svg" width="500.26" height="226" stroke-linejoin="round">
	<path fill="#004586" d="M113 5c-11.32 0-22.6 1.77-33.38 5.28S58.67 18.95 49.5 25.63c-9.15 6.65-17.23 14.72-23.88 23.87-6.67 9.18-11.85 19.35-15.35 30.13S5 101.67 5 113c0 11.3 1.77 22.57 5.28 33.35s8.67 20.95 15.35 30.13c6.65 9.15 14.72 17.22 23.87 23.87 9.18 6.67 19.35 11.85 30.13 15.35S101.67 221 113 221s22.6-1.8 33.38-5.3c1.2-.38 2.37-.8 3.57-1.23l-18.48-50.75c-.6.23-1.2.43-1.77.63-5.4 1.75-11.03 2.63-16.7 2.63s-11.3-.88-16.7-2.63c-5.38-1.77-10.45-4.35-15.05-7.67-4.58-3.36-8.6-7.38-11.95-11.96-3.33-4.6-5.9-9.67-7.68-15.05C59.87 124.27 59 118.65 59 113c0-5.68.87-11.3 2.62-16.7 1.78-5.38 4.35-10.45 7.68-15.05 3.35-4.58 7.37-8.6 11.95-11.95 4.6-3.33 9.67-5.9 15.05-7.68C101.7 59.87 107.32 59 113 59z"/>
	<path fill="#007fff" d="M149.95 214.48c9.45-3.45 18.4-8.2 26.55-14.13 9.15-6.65 17.23-14.72 23.88-23.87 2.22-3.08 4.27-6.22 6.17-9.5l-46.77-27c-.95 1.63-1.98 3.23-3.08 4.75-3.35 4.58-7.37 8.6-11.95 11.95-4.07 2.95-8.55 5.32-13.27 7.05z"/>
	<path fill="#ff7f00" d="M206.55 166.98c3.77-6.53 6.85-13.45 9.18-20.63 3.5-10.77 5.3-22.05 5.3-33.35 0-11.32-1.8-22.6-5.3-33.37s-8.68-20.95-15.35-30.13c-5.18-7.12-11.2-13.57-17.95-19.25l-34.7 41.38c3.37 2.83 6.37 6.08 8.97 9.63 3.33 4.6 5.9 9.67 7.68 15.04 1.75 5.4 2.62 11.03 2.62 16.7 0 5.65-.87 11.28-2.62 16.68-1.18 3.58-2.73 7.03-4.6 10.3z"/>
	<path fill="#579d1c" d="M182.42 30.25c-1.93-1.6-3.9-3.15-5.92-4.63-9.18-6.67-19.36-11.85-30.13-15.35S124.32 5 113 5v54c5.67 0 11.3.88 16.7 2.63 5.37 1.77 10.44 4.34 15.04 7.67 1 .75 2 1.52 2.98 2.33z"/>
	<path fill="#004586" d="M235.38 68.7h-5.28V58.13h10.58V68.7z"/>
	<path fill="#007fff" d="M235.38 101.18h-5.28V90.6h10.58v10.58z"/>
	<path fill="#ff7f00" d="M235.38 133.62h-5.28v-10.57h10.58v10.57z"/>
	<path fill="#579d1c" d="M235.38 166.1h-5.28v-10.57h10.58v10.57z"/>
	<text x="-3.3" y=".6" font-family="'DejaVu Sans', sans-serif" font-size="17.65">
		<tspan x="244.5" y="69.7"> Technische Informatik </tspan> <tspan x="244.5" y="102.2"> European Computer Science </tspan> <tspan x="244.5" y="134.6"> Media Systems </tspan> <tspan x="244.5" y="167.1"> Wirtschaftsinformatik </tspan>
	</text>
</svg>
