<?xml version="1.0" encoding="UTF-8"?>
<svg version="1.1" viewBox="0 0 1000 1000" xmlns="http://www.w3.org/2000/svg">
 <path d="m160 0c-88.64 0-160 71.36-160 160v680c0 88.64 71.36 160 160 160h680c88.64 0 160-71.36 160-160v-680c0-88.64-71.36-160-160-160h-680zm140 150a200 200 0 0 1 200 200 200 200 0 0 1 -200 200 200 200 0 0 1 -200 -200 200 200 0 0 1 200 -200zm450 100a100 150 0 0 1 100 150 100 150 0 0 1 -100 150 100 150 0 0 1 -100 -150 100 150 0 0 1 100 -150zm-250 450a150 100 0 0 1 150 100 150 100 0 0 1 -150 100 150 100 0 0 1 -150 -100 150 100 0 0 1 150 -100z"/>
</svg>
