<svg xmlns="http://www.w3.org/2000/svg" width="350" height="290"><ellipse cx="100.7" cy="271.8" fill="#fff" fill-opacity=".8" stroke="#000" ry="15.9" rx="50.4"/><text x="100.7" y="275.5" font-size="12.3" font-family="Times, serif" text-anchor="middle">Data Center</text><ellipse cx="155.3" cy="145" fill="#fff" fill-opacity=".8" stroke="#000" ry="15.9" rx="51"/><text x="155.3" y="148.7" font-size="12.3" font-family="Times, serif" text-anchor="middle">BPExecutor</text><path fill="none" stroke="#000" d="M152 160.8c-4 16.5-10.7 42.5-20.3 63.5-4 8.3-9.2 16.8-14 24.4"/><path stroke="#000" d="M115 247l5 3.7-7.6 5.5z"/><ellipse cx="221.4" cy="208.4" fill="#fff" fill-opacity=".8" stroke="#000" ry="15.9" rx="48.4"/><text x="221.4" y="212.1" font-size="12.3" font-family="Times, serif" text-anchor="middle">BPInstance</text><path fill="none" stroke="#000" d="M171.2 160.3l28 26.7"/><path stroke="#000" d="M197 189.3l4.4-4.4 4 8.2z"/><ellipse cx="85.7" cy="208.4" fill="#fff" fill-opacity=".8" stroke="#000" ry="15.9" rx="37.8"/><text x="85.7" y="212.1" font-size="12.3" font-family="Times, serif" text-anchor="middle">Monitor</text><path fill="none" stroke="#000" d="M139 160L108 188" stroke-dasharray="5 2"/><path stroke="#000" d="M106 185.7l4.2 4.6-8.7 3.6z"/><ellipse cx="213.5" cy="271.8" fill="#fff" fill-opacity=".8" stroke="#000" ry="15.9" rx="39.3"/><text x="213.4" y="275.5" font-size="12.3" font-family="Times, serif" text-anchor="middle">Service1</text><path fill="none" stroke="#000" d="M219.3 224.4c-1 6.8-1.7 14.8-3 22.4"/><path stroke="#000" d="M213.5 246.4l6 1-4 8.2z"/><ellipse cx="308.6" cy="271.8" fill="#fff" fill-opacity=".8" stroke="#000" ry="15.9" rx="39.3"/><text x="308.5" y="275.5" font-size="12.3" font-family="Times, serif" text-anchor="middle">Service2</text><path fill="none" stroke="#000" d="M241.5 223l40.4 29.5"/><path stroke="#000" d="M280.4 255l3.6-5 5.5 7.7z"/><ellipse cx="78.7" cy="18.2" fill="#fff" fill-opacity=".8" stroke="#000" ry="15.9" rx="32.7"/><text x="78.7" y="21.9" font-size="12.3" font-family="Times, serif" text-anchor="middle">Nutzer</text><ellipse cx="40" cy="81.5" fill="#fff" fill-opacity=".8" stroke="#000" ry="15.9" rx="37.8"/><text x="40" y="85.3" font-size="12.3" font-family="Times, serif" text-anchor="middle">Website</text><path fill="none" stroke="#000" d="M69.3 33.5L54 58.5"/><path stroke="#000" d="M51.3 57l5.3 3.3-7.2 6z"/><ellipse cx="117.4" cy="81.5" fill="#fff" fill-opacity=".8" stroke="#000" ry="15.9" rx="23.8"/><text x="117.5" y="85.3" font-size="12.3" font-family="Times, serif" text-anchor="middle">API</text><path fill="none" stroke="#000" d="M88 33.5L103.7 59"/><path stroke="#000" d="M101.2 61l5.2-3.3 2 9z"/><path fill="none" stroke="#000" d="M126.5 96.5c4.3 7.6 9.7 16.8 14.8 25"/><path stroke="#000" d="M138.7 123.2l5.3-3 2 9z"/><path fill="none" stroke="#000" d="M109.3 96.5c-4.4 9.2-9.8 21.3-13 32.7-5 17.7-7.7 38.4-9 54.3" stroke-dasharray="5 2"/><path stroke="#000" d="M84.2 183.3l6.2.5-4 8.6z"/><path fill="none" stroke="#000" d="M89.6 224.4l5.2 22.4"/><path stroke="#000" d="M91.8 247.8l6-1.5-1 9.3z"/></svg>