<svg xmlns="http://www.w3.org/2000/svg" viewBox="0 0 865.31732 646.71332">
  <defs>
    <clipPath id="a">
      <path d="M0 0h649v485H0z"/>
    </clipPath>
    <linearGradient id="b" x2="1" gradientTransform="scale(485.03613) rotate(-90 .835 .165)" gradientUnits="userSpaceOnUse">
      <stop offset="0"/>
      <stop offset=".4" stop-color="#2d2d2d"/>
      <stop offset=".6" stop-color="#686868"/>
      <stop offset=".7" stop-color="#2d2d2d"/>
      <stop offset="1"/>
    </linearGradient>
    <clipPath id="c">
      <path d="M0 485h649V0H0z"/>
    </clipPath>
    <linearGradient id="d" x2="1" gradientTransform="scale(144.13675) rotate(-149 2.487 .752)" gradientUnits="userSpaceOnUse">
      <stop offset="0" stop-color="#d6de23"/>
      <stop offset=".2" stop-color="#d6de23"/>
      <stop offset="1" stop-color="#576000"/>
    </linearGradient>
    <linearGradient id="e" x2="1" gradientTransform="rotate(-113 394.34 10.368) scale(139.29812)" gradientUnits="userSpaceOnUse">
      <stop offset="0" stop-color="#00adee"/>
      <stop offset=".2" stop-color="#00adee"/>
      <stop offset="1" stop-color="#003f62"/>
    </linearGradient>
    <linearGradient id="f" x2="1" gradientTransform="matrix(-20.72272 -72.2686 72.26862 -20.72272 504.938 335.035)" gradientUnits="userSpaceOnUse">
      <stop offset="0" stop-color="#eb008b"/>
      <stop offset=".2" stop-color="#eb008b"/>
      <stop offset="1" stop-color="#690039"/>
    </linearGradient>
    <linearGradient id="g" x2="1" gradientTransform="matrix(-16.33806 -84.05194 84.05196 -16.33806 488.688 345.848)" gradientUnits="userSpaceOnUse">
      <stop offset="0" stop-color="#fff100"/>
      <stop offset=".2" stop-color="#fff100"/>
      <stop offset="1" stop-color="#f48120"/>
    </linearGradient>
    <linearGradient id="h" x2="1" gradientTransform="scale(56.42932) rotate(-94 7.258 -.658)" gradientUnits="userSpaceOnUse">
      <stop offset="0" stop-color="#684286"/>
      <stop offset=".2" stop-color="#684286"/>
      <stop offset="1" stop-color="#270037"/>
    </linearGradient>
    <linearGradient id="i" x2="1" gradientTransform="matrix(-12.32802 -117.29318 117.2932 -12.32802 462.875 385.16)" gradientUnits="userSpaceOnUse">
      <stop offset="0" stop-color="#fff584"/>
      <stop offset=".2" stop-color="#fff584"/>
      <stop offset="1" stop-color="#ffca05"/>
    </linearGradient>
    <linearGradient id="j" x2="1" gradientTransform="rotate(-96 389.358 -22.693) scale(80.3588)" gradientUnits="userSpaceOnUse">
      <stop offset="0" stop-color="#ec1651"/>
      <stop offset=".2" stop-color="#ec1651"/>
      <stop offset="1" stop-color="#670014"/>
    </linearGradient>
    <linearGradient id="k" x2="1" gradientTransform="scale(116.33978) rotate(13 -5.402 2.364)" gradientUnits="userSpaceOnUse">
      <stop offset="0" stop-color="#d6de23"/>
      <stop offset=".2" stop-color="#d6de23"/>
      <stop offset="1" stop-color="#576000"/>
    </linearGradient>
    <linearGradient id="l" x2="1" gradientTransform="rotate(29 -226.79 301.757) scale(84.7753)" gradientUnits="userSpaceOnUse">
      <stop offset="0" stop-color="#00adee"/>
      <stop offset=".2" stop-color="#00adee"/>
      <stop offset="1" stop-color="#003f62"/>
    </linearGradient>
    <linearGradient id="m" x2="1" gradientTransform="rotate(19 -301.19 272.61) scale(106.59114)" gradientUnits="userSpaceOnUse">
      <stop offset="0" stop-color="#eb008b"/>
      <stop offset=".2" stop-color="#eb008b"/>
      <stop offset="1" stop-color="#690039"/>
    </linearGradient>
    <linearGradient id="n" x2="1" gradientTransform="matrix(82.2483 53.41272 -53.4127 82.2483 101.297 113.16)" gradientUnits="userSpaceOnUse">
      <stop offset="0" stop-color="#fff100"/>
      <stop offset=".2" stop-color="#fff100"/>
      <stop offset="1" stop-color="#f48120"/>
    </linearGradient>
    <linearGradient id="o" x2="1" gradientTransform="scale(77.8876) rotate(32 -1.566 2.292)" gradientUnits="userSpaceOnUse">
      <stop offset="0" stop-color="#684286"/>
      <stop offset=".2" stop-color="#684286"/>
      <stop offset="1" stop-color="#270037"/>
    </linearGradient>
    <linearGradient id="p" x2="1" gradientTransform="rotate(33 -107.893 216.313) scale(98.2424)" gradientUnits="userSpaceOnUse">
      <stop offset="0" stop-color="#fff584"/>
      <stop offset=".2" stop-color="#fff584"/>
      <stop offset="1" stop-color="#ffca05"/>
    </linearGradient>
    <linearGradient id="q" x2="1" gradientTransform="matrix(65.76057 57.16476 -57.16475 65.76057 125.043 88.598)" gradientUnits="userSpaceOnUse">
      <stop offset="0" stop-color="#ec1651"/>
      <stop offset=".2" stop-color="#ec1651"/>
      <stop offset="1" stop-color="#670014"/>
    </linearGradient>
    <linearGradient id="r" x2="1" gradientTransform="translate(134.406 208.91) scale(130.74014)" gradientUnits="userSpaceOnUse">
      <stop offset="0" stop-color="#ec1651"/>
      <stop offset=".2" stop-color="#ec1651"/>
      <stop offset="1" stop-color="#670014"/>
    </linearGradient>
    <clipPath id="s">
      <path d="M0 485h649V0H0z"/>
    </clipPath>
    <radialGradient id="t" cx="0" cy="0" r="1" spreadMethod="pad" gradientTransform="matrix(67.05736 0 0 67.05736 306.313 194.895)" gradientUnits="userSpaceOnUse" fy="0" fx="0">
      <stop offset="0" stop-color="#ffca05"/>
      <stop offset="1" stop-color="#fffbd4"/>
    </radialGradient>
    <clipPath id="u">
      <path d="M0 485h649V0H0z"/>
    </clipPath>
    <radialGradient id="v" cx="0" cy="0" r="1" spreadMethod="pad" gradientTransform="translate(397.922 193.926) scale(53.4606)" gradientUnits="userSpaceOnUse" fy="0" fx="0">
      <stop offset="0" stop-color="#fff"/>
      <stop offset=".2" stop-color="#fff"/>
      <stop offset=".5" stop-color="#77d1f6"/>
      <stop offset="1" stop-color="#3d68b1"/>
    </radialGradient>
    <clipPath id="w">
      <path d="M0 485h649V0H0z"/>
    </clipPath>
    <radialGradient id="x" cx="0" cy="0" r="1" spreadMethod="pad" gradientTransform="translate(526.938 282.8) scale(44.94638)" gradientUnits="userSpaceOnUse" fy="0" fx="0">
      <stop offset="0" stop-color="#17575c"/>
      <stop offset=".4" stop-color="#17575c"/>
      <stop offset="1" stop-color="#56c4cf"/>
    </radialGradient>
    <clipPath id="y">
      <path d="M0 485h649V0H0z"/>
    </clipPath>
    <radialGradient id="z" cx="0" cy="0" r="1" spreadMethod="pad" gradientTransform="matrix(48.1847 0 0 48.1847 465.953 239.473)" gradientUnits="userSpaceOnUse" fy="0" fx="0">
      <stop offset="0"/>
      <stop offset=".6" stop-color="#eb008b"/>
      <stop offset="1" stop-color="#eb008b"/>
    </radialGradient>
    <clipPath id="A">
      <path d="M0 485h649V0H0z"/>
    </clipPath>
    <linearGradient id="B" x2="1" gradientTransform="translate(85.875 278.285) scale(135.38042)" gradientUnits="userSpaceOnUse">
      <stop offset="0" stop-color="#fff584"/>
      <stop offset=".2" stop-color="#fff584"/>
      <stop offset="1" stop-color="#ffca05"/>
    </linearGradient>
    <clipPath id="C">
      <path d="M0 485h649V0H0z"/>
    </clipPath>
    <radialGradient id="D" cx="0" cy="0" r="1" spreadMethod="pad" gradientTransform="matrix(26.1686 0 0 26.1686 137.297 302.95)" gradientUnits="userSpaceOnUse" fy="0" fx="0">
      <stop offset="0" stop-color="#17575c"/>
      <stop offset=".4" stop-color="#17575c"/>
      <stop offset="1" stop-color="#cbe6d2"/>
    </radialGradient>
    <clipPath id="E">
      <path d="M0 485h649V0H0z"/>
    </clipPath>
    <linearGradient id="F" x2="1" gradientTransform="translate(339.25 311.41) scale(100.07005)" gradientUnits="userSpaceOnUse">
      <stop offset="0" stop-color="#eb008b"/>
      <stop offset=".8" stop-color="#790869"/>
      <stop offset="1" stop-color="#790869"/>
    </linearGradient>
    <clipPath id="G">
      <path d="M0 485h649V0H0z"/>
    </clipPath>
  </defs>
  <g clip-path="url(#a)" transform="matrix(1.33333 0 0 -1.33333 0 646.713)">
    <path fill="url(#b)" d="M0 0h649v485H0z"/>
  </g>
  <g clip-path="url(#c)" transform="matrix(1.33333 0 0 -1.33333 0 646.713)">
    <path d="M120.2-14.7c0 .8-.8 1.4-1.6 1.4-2 0-2.2-1.6-2.2-3 0-1.3.6-2.6 2-2.6 1.2 0 1.8.7 2 1.8h3c-.2-2.7-2.3-4.3-5-4.3-3 0-5.3 2-5.3 5.2 0 3.3 2.2 5.6 5.4 5.6 2.6 0 4.8-1.4 5-4zM128.8-10.8c-3 0-5.3-2.3-5.3-5.4 0-3 2.2-5.3 5.3-5.3 3 0 5.3 2.3 5.3 5.3s-2 5.4-5.2 5.4M111.5-18.3c-1 0-1.5-.7-1.5-1.5s.6-1.4 1.5-1.4c.8 0 1.4.6 1.4 1.4 0 .8-.7 1.5-1.5 1.5M134.4-11.5h3v-1.3h.2c.5 1 1.6 1.6 2.8 1.6 1.2 0 2.3-.4 3-1.6.6 1 1.6 1.6 3 1.6 3 0 3.4-2.4 3.4-4.2v-6h-3.2v6c0 1-.5 1.6-1.4 1.6-1.4 0-1.5-1-1.5-2.7v-4.8h-3.2v5.6c0 1-.4 2-1.2 2-1.2 0-1.7-.8-1.7-2.8v-4.8h-3.2zM68.7-21.2H65l-3.3 9.7H65l1.8-6.4 2 6.5h3z"/>
    <path d="M73.7-17c0-1.5.8-2.3 2.2-2.3.6 0 1.4.3 1.7 1h3c-.6-2.2-2.7-3.2-5-3.2-3 0-5.2 2-5.2 5.2 0 3 2.4 5 5.2 5 3.5 0 5.3-2.5 5-5.8zM87.7-15c0 .8-.8 1.4-1.6 1.4-1.7 0-2-1.6-2-3 0-1.2.6-2.5 2-2.5 1 0 1.6.6 1.8 1.6h3c-.2-2.6-2.2-4-4.8-4-3 0-5 2-5 5s1.8 5.2 5 5.2c2.4 0 4.6-1.3 4.8-3.8z"/>
    <path d="M97-13.5h-2V-18c0-.7.4-1 1-1h1V-21H95c-2.7 0-3.4.7-3.4 3.3v4.5h-1.6v2h1.6v3H95v-3h2z"/>
    <path d="M101.3-11.2c-3 0-5-2.2-5-5.2s2-5 5-5 5.2 2 5.2 5-2 5.2-5.2 5.2"/>
    <path d="M106.3-11.5h3v-1.7c.6 1.3 1.7 2 3 2 .3 0 .6 0 .8-.2v-3c-.3.2-.7.3-1 .3-1.7 0-2.5-1.2-2.5-2.4v-4.8h-3.2zM36.6-11.5h3v-1.7c.6 1.3 1.7 2 3 2 .3 0 .6 0 .8-.2v-3l-1.2.3c-1.6 0-2.4-1.2-2.4-2.4v-4.8h-3.2z"/>
    <path d="M45.5-17c0-1.5.8-2.3 2.2-2.3.7 0 1.5.3 1.8 1h3c-.6-2.2-2.7-3.2-5-3.2-3 0-5.2 2-5.2 5.2 0 3 2.4 5 5.2 5 3.5 0 5.3-2.5 5-5.8z"/>
    <path d="M55.6-17c0-1.5.8-2.3 2-2.3 1 0 1.7.3 2 1h3c-.6-2.2-2.7-3.2-5-3.2-3 0-5.2 2-5.2 5.2 0 3 2.3 5 5.2 5 3.5 0 5.3-2.5 5-5.8zM36-10h1v2c-.6.2-1.2.2-1.7.2-2.7 0-3.7-1-3.7-3.7H30v-2h1.6v-7.7h3.2v7.7h2v2h-2v.5c0 .8.5 1 1.2 1"/>
    <path fill="#fff" d="M27-14.6c0-4-3.3-7.2-7.3-7.2s-7.2 3.2-7.2 7.2 3.2 7.2 7.2 7.2 7.2-3.2 7.2-7.2"/>
    <path d="M19-16.2c-.3 0-.8.2-1 .4l-1.4 1.5c-.2.3 0 1 .6 1 .2.2.5.2.7 0l1.5-2c0-.4 0-.7-.5-1m.7 9c-.7 0-1.3 0-2-.3.4 0 .5-.2.6-.5l1.5-5 .4-1c0-.2-.2-.3-.3-.5l-.4-.7-1.5 2v1c-.2.3-1 3.2-1 3.2 0 .5 0 1 .2 1.2-2.8-1-4.8-3.6-4.8-6.8 0-2.8 1.7-5.3 4-6.5-.2.3-.5 1-.6 1.7l-.4 3c-.2 1-.2 1 .2 1.6 0 .2.3.3.5.4.3 0 .5 0 .5-.2L18-16v-.8l-.4-.2H17l-1.5 1.2c0-.3 1-1 1.3-1.3 0-.2.5-.3 1-.2l.3.3c.2.4.3.6.2.8.3 0 .6-.2 1 0 .2 0 .4 0 .4.3v-.6l.4-1.2v-.2l-.5-1-.2-1.3v-.3.3l.3 1.2.6 1v.3l-.3 1.2c-.2 1-.3 1.2 0 2 .3.5 1 .5 1.2.5v-.7c0-.4 0-.8.2-1.3 0-.7.3-1.2.6-1.5.2-.3.3-.4.4-.3 0 0-.2 0-.4.4 0 .3-.4.8-.4 1.4v1.3c0 .5 0 .8-.3.8 0 .2-.3.2-.5.2l1.4 4.5c.2.8.5 1.2 1 1-1 .7-2.2 1-3.5 1"/>
    <path d="M23.6-8.4c.2-.2.2-.5.2-.7l-1.2-5.5c0-.5-.2-1.3 0-2 0-.7.3-1.8 0-3 0-.7-.2-1.4-.5-2 3 1 5 3.8 5 7 0 2.5-1.3 4.8-3.4 6M164.3-11.7h2.5v-9.6h-2.5zM168.4-14.3h2.2v-1c.4.7 1.2 1.2 2 1.2 1 0 1.7-.4 2-1.2.6.7 1.3 1 2.2 1 2.3 0 2.5-1.6 2.5-3v-4H177v4c0 .8-.4 1.2-1 1.2-1 0-1-.7-1-2v-3.3h-2.3v4c0 .8-.2 1.3-1 1.3-.7 0-1-.5-1-2v-3.3h-2.3zM183.7-20c1 0 1.4.5 1.4 2-.2-.2-.8-.3-1.3-.4-.5 0-1-.3-1-1 0-.4.5-.7 1-.7m-3 3.5c0 1 .5 1.5 1 2 .7.3 1.5.4 2.3.4 1.7 0 3.3-.5 3.3-2.4v-3c0-.7 0-1.3.2-2h-2.2l-.2.8c-.5-.6-1.3-1-2.2-1-1.3 0-2.4.8-2.4 2.2 0 2.3 2.5 2 4 2.4.5 0 .7.3.7.7 0 .5-.5.7-1 .7-.6 0-1-.3-1-1zM192-16c-1 0-1.3-.7-1.3-1.6 0-.8.3-1.6 1.3-1.6s1.4.7 1.4 1.6c0 1-.4 1.7-1.4 1.7m3.5-4.4c0-1.2-.2-3.3-3.5-3.3-1.6 0-3 .3-3.4 2.2h2.3c0-.3 0-.5.3-.6.2-.2.5-.2.8-.2 1.2 0 1.3.7 1.3 1.6v.6c-.4-.6-1-1-2-1-2 0-3 1.5-3 3.5 0 1.8 1.2 3.4 3 3.4 1 0 1.6-.5 2-1.2v1h2.2zM201.8-17c0 .7-.6 1.3-1.4 1.3-.8 0-1.3-.5-1.5-1.4zm-3-1.4c.2-1 .7-1.5 1.7-1.5.5 0 1 .3 1.3.8h2c-.3-1.6-1.8-2.3-3.3-2.3-2.3 0-4 1.4-4 3.7 0 2.2 2 3.7 4 3.7 2.4 0 3.7-2 3.5-4.4zM207-19c0-.3 0-.6.3-.8l1-.2c.3 0 1 .2 1 .7 0 .6-.8.7-1.2.8-1.3.3-3 .4-3 2.3 0 1.6 1.7 2 3 2 1.6 0 3.2-.4 3.3-2.2h-2c0 .3-.2.5-.4.6-.3.2-.6.2-.8.2-.4 0-1 0-1-.5 0-.8 1.5-1 2.6-1 1.4-.4 1.7-1.4 1.7-2 0-2-1.7-2.5-3.3-2.5-1.7 0-3.4.6-3.4 2.5zM219.7-20c1 0 1.5.5 1.4 2-.2-.2-.8-.3-1.3-.4-.5 0-1-.3-1-1 0-.4.5-.7 1-.7m-3 3.5c0 1 .6 1.5 1.2 2 .5.3 1.3.4 2 .4 1.7 0 3.3-.5 3.3-2.4v-3c0-.7 0-1.3.3-2h-2.3v.8c-.7-.6-1.6-1-2.4-1-1.5 0-2.5.8-2.5 2.2 0 2.3 2.5 2 4 2.4.4 0 .7.3.7.7 0 .5-.7.7-1 .7-.8 0-1.2-.3-1.3-1zM225-14.3h2v-1.2h.2c.3 1 1 1.3 2 1.3h.6v-2h-1c-1 0-1.6-.8-1.6-1.6v-3.5H225zM235-17c0 .7-.5 1.3-1.3 1.3s-1.3-.5-1.4-1.4zm-2.7-1.4c0-1 .6-1.5 1.5-1.5.6 0 1 .3 1.3.8h2.3c-.5-1.6-2-2.3-3.5-2.3-2.3 0-3.8 1.4-3.8 3.7 0 2.2 1.7 3.7 3.7 3.7 2.5 0 3.8-2 3.7-4.4zM245-17.7c0-1.2.3-2 1.3-2s1.4 1 1.4 2-.4 1.8-1.4 1.8c-.6 0-1.4-.3-1.4-1.7m-2.3 3.4h2.2v-.8c.4.5 1 1 2 1 2 0 3-2 3-4 0-1.8-1-3.5-3-3.5-.8 0-1.5.3-2 1v-3h-2.3zM251.3-14.3h2.2v-1.2c.4 1 1 1.3 2 1.3h.7v-2h-1c-1 0-1.6-.8-1.6-1.6v-3.5h-2.3zM260-19.7c1 0 1.4 1 1.4 2 0 .8-.3 1.8-1.4 1.8-1 0-1.4-1-1.4-1.8 0-1 .3-2 1.4-2m0 5.7c2.2 0 3.7-1.7 3.7-3.8 0-2-1.5-3.7-3.7-3.7s-3.7 1.6-3.7 3.7c0 2 1.5 3.7 3.7 3.7M267-17.7c0-1.2.4-2 1.5-2 1 0 1.3 1 1.3 2s-.3 1.8-1.3 1.8c-.6 0-1.4-.3-1.4-1.7m-2 3.4h2v-.8c.5.5 1.2 1 2 1 2.2 0 3-2 3-4 0-1.8-1-3.5-2.8-3.5-1 0-1.5.3-2 1v-3H265zM278-17c0 .7-.5 1.3-1.2 1.3-.8 0-1.4-.5-1.5-1.4zm-2.7-1.4c0-1 .6-1.5 1.5-1.5.6 0 1 .3 1.3.8h2.3c-.4-1.6-2-2.3-3.5-2.3-2.3 0-3.8 1.4-3.8 3.7 0 2.2 1.7 3.7 3.8 3.7 2.5 0 3.7-2 3.6-4.4zM281.6-14.3h2.2v-1.2c.4 1 1.2 1.3 2.2 1.3h.5v-2h-1c-1 0-1.6-.8-1.6-1.6v-3.5h-2.4zM291.5-15.8H290V-19c0-.5.4-.6 1-.6h.5v-1.7h-1.3c-2 0-2.4.5-2.4 2.4v3.2h-1.2v1.5h1.2v2h2.2v-2h1.5zM296.3-22c-.6-1.4-1.4-1.6-3-1.6h-1v1.8h.8c.6 0 1 .3 1 .8 0 .4-.5 1.5-.6 1.8l-1.8 5h2.4l1.3-4.6 1.4 4.5h2.3zM307.2-19.7c1 0 1.4 1 1.4 2 0 .8-.3 1.8-1.4 1.8-1 0-1.3-1-1.3-1.8 0-1 .2-2 1.2-2m0 5.7c2.2 0 3.7-1.7 3.7-3.8 0-2-1.6-3.7-3.8-3.7-2 0-3.6 1.6-3.6 3.7 0 2 1.5 3.7 3.6 3.7M312.6-15.8h-1v1.5h1c0 2 .7 2.6 2.7 2.6h1v-1.6h-.6c-.5 0-.8 0-.8-.7v-.3h1.3v-1.5H315v-5.5h-2.4zM325.5-15.8H324V-19c0-.5.4-.6 1-.6h.5v-1.7h-1.2c-2 0-2.5.5-2.5 2.4v3.2h-1v1.5h1v2h2.3v-2h1.5zM326.5-11.7h2.3v-3.6c.4.7 1.3 1.2 2.2 1.2 2.3 0 2.5-1.8 2.5-2.8v-4.5h-2.3v3.4c0 1 0 2-1.2 2-.8 0-1.2-.7-1.2-1.5v-3.8h-2.3zM339.8-17c0 .7-.6 1.3-1.4 1.3-.8 0-1.3-.5-1.5-1.4zm-3-1.4c.2-1 .7-1.5 1.7-1.5.5 0 1 .3 1.3.8h2c-.3-1.6-1.8-2.3-3.3-2.3-2.3 0-3.8 1.4-3.8 3.7 0 2.2 1.7 3.7 3.7 3.7 2.5 0 3.8-2 3.6-4.4zM349.4-17.7c0-1 .3-2 1.4-2 1 0 1.3 1 1.3 2S352-16 351-16s-1.4-.8-1.4-1.7m5-3.6H352v.8c-.3-.6-1-1-1.8-1-2.2 0-3 2-3 4 0 1.7.8 3.4 2.8 3.4 1 0 1.5-.4 2-1v3.3h2.3zM360.7-17c0 .7-.6 1.3-1.4 1.3-.8 0-1.3-.5-1.5-1.4zm-3-1.4c.2-1 .7-1.5 1.7-1.5.5 0 1 .3 1.3.8h2c-.3-1.6-1.8-2.3-3.3-2.3-2.3 0-4 1.4-4 3.7 0 2.2 1.8 3.7 4 3.7 2.4 0 3.6-2 3.5-4.4zM365.8-19c0-.3.2-.6.4-.8l1-.2c.3 0 1 .2 1 .7 0 .6-.8.7-1.2.8-1.4.3-3.2.4-3.2 2.3 0 1.6 1.8 2 3.2 2 1.5 0 3-.4 3.2-2.2h-2c0 .3-.2.5-.4.6-.2.2-.5.2-.7.2-.3 0-1 0-1-.5 0-.8 1.6-1 2.7-1 1.4-.4 1.7-1.4 1.7-2 0-2-1.7-2.5-3.3-2.5-1.6 0-3.3.6-3.3 2.5zM371.6-14.3h2.3v-7h-2.4zm2.3 1h-2.4v1.6h2.3zM378.7-16c-1 0-1.3-.7-1.3-1.6 0-.8.4-1.6 1.3-1.6 1 0 1.4.7 1.4 1.6 0 1-.3 1.7-1.3 1.7m3.6-4.4c0-1.2-.3-3.3-3.5-3.3-1.6 0-3.2.3-3.4 2.2h2.2c0-.3.2-.5.4-.6.2-.2.5-.2 1-.2 1 0 1 .7 1 1.6v.6c-.4-.6-1-1-1.8-1-2 0-3 1.5-3 3.5 0 1.8 1 3.4 3 3.4.8 0 1.4-.5 1.8-1.2v1h2.3zM383.7-14.3h2.2v-1c.4.7 1.3 1.2 2 1.2 2.5 0 2.7-1.8 2.7-2.8v-4.5h-2.3v3.4c0 1 0 2-1.2 2-.8 0-1.2-.7-1.2-1.5v-3.8h-2.3zM397-17c0 .7-.6 1.3-1.4 1.3-.8 0-1.3-.5-1.5-1.4zm-3-1.4c.2-1 .7-1.5 1.7-1.5.5 0 1 .3 1.3.8h2c-.3-1.6-1.8-2.3-3.4-2.3-2.2 0-3.8 1.4-3.8 3.7 0 2.2 1.7 3.7 3.8 3.7 2.5 0 3.7-2 3.6-4.4zM400.5-14.3h2.2v-1.2c.3 1 1 1.3 2 1.3h.6v-2h-.8c-1.2 0-1.8-.8-1.8-1.6v-3.5h-2.2zM405-18.8h2.5v-2.5H405zM422.7-15c0 1-1 1.4-2 1.4-1.5 0-2-1.5-2-3 0-1.3.5-2.7 2-2.7 1.3 0 2 .6 2 1.7h2.5c0-2.4-2-4-4.4-4-3 0-4.7 2.3-4.7 5 0 3 2 5 4.8 5 2 0 4.4-1.2 4.4-3.5zM426.5-11.7h2.2v-3.6c.4.7 1.4 1.2 2.2 1.2 2.2 0 2.4-1.8 2.4-2.8v-4.5H431v3.4c0 1 .2 2-1 2-1 0-1.3-.7-1.3-1.5v-3.8h-2.2zM439.7-17c0 .7-.6 1.3-1.4 1.3-.8 0-1.3-.5-1.4-1.4zm-2.8-1.4c0-1 .4-1.5 1.4-1.5.6 0 1 .3 1.3.8h2.2c-.6-1.6-2-2.3-3.6-2.3-2.3 0-3.8 1.4-3.8 3.7 0 2.2 1.7 3.7 3.7 3.7 2.5 0 3.8-2 3.7-4.4zM447.7-17c0 .7-.6 1-1.2 1-1.2 0-1.4-1-1.4-2 0-.8.4-1.7 1.4-1.7.8 0 1.2.4 1.3 1.2h2.2c-.3-2-1.7-3-3.6-3-2 0-3.6 1.5-3.6 3.6 0 2.3 1.4 4 3.6 4 1.8 0 3.3-1 3.5-3zM451-11.7h2.4v-5l2 2.4h2.7l-2.5-2.6 3-4.3h-2.8l-1.8 2.8-.6-.6v-2.3H451zM463.3-11.7h2.3v-9.6h-2.3zM467.3-14.3h2.3v-7h-2.3zm2.3 1h-2.3v1.6h2.3zM475.7-17c0 .7-.5 1-1 1-1.3 0-1.5-1-1.5-2 0-.8.3-1.7 1.3-1.7.8 0 1.2.4 1.3 1.2h2.2c-.2-2-1.6-3-3.5-3-2 0-3.6 1.5-3.6 3.6 0 2.3 1.3 4 3.5 4 1.8 0 3.3-1 3.5-3zM484-17c0 .7-.6 1.3-1.4 1.3-.8 0-1.3-.5-1.5-1.4zm-3-1.4c.2-1 .7-1.5 1.7-1.5.5 0 1 .3 1.3.8h2c-.3-1.6-1.8-2.3-3.4-2.3-2.2 0-3.8 1.4-3.8 3.7 0 2.2 1.7 3.7 3.8 3.7 2.5 0 3.7-2 3.6-4.4zM487.4-14.3h2.2v-1c.4.7 1.4 1.2 2.2 1.2 2.3 0 2.5-1.8 2.5-2.8v-4.5H492v3.4c0 1 0 2-1 2s-1.3-.7-1.3-1.5v-3.8h-2.3zM497.6-19c0-.3 0-.6.4-.8l.8-.2c.5 0 1 .2 1 .7 0 .6-.6.7-1 .8-1.5.3-3.3.4-3.3 2.3 0 1.6 2 2 3.2 2 1.6 0 3.2-.4 3.2-2.2h-2.2c0 .3 0 .5-.3.6-.2.2-.4.2-.7.2-.4 0-1 0-1-.5 0-.8 1.6-1 2.6-1 1.4-.4 1.8-1.4 1.8-2 0-2-1.8-2.5-3.4-2.5-1.6 0-3.3.6-3.4 2.5zM508-17c0 .7-.5 1.3-1.3 1.3s-1.3-.5-1.5-1.4zm-2.8-1.4c0-1 .6-1.5 1.6-1.5.5 0 1 .3 1.3.8h2.2c-.4-1.6-2-2.3-3.4-2.3-2.3 0-3.8 1.4-3.8 3.7 0 2.2 1.7 3.7 3.7 3.7 2.5 0 3.8-2 3.7-4.4zM516.2-15.8h-1v1.5h1c0 2 .7 2.6 2.7 2.6h1v-1.6h-.7c-.5 0-.8 0-.8-.7v-.3h1.4v-1.5h-1.5v-5.5h-2.3zM524-19.7c1 0 1.4 1 1.4 2 0 .8-.3 1.8-1.4 1.8-1 0-1.4-1-1.4-1.8 0-1 .4-2 1.4-2m0 5.7c2.2 0 3.7-1.7 3.7-3.8 0-2-1.5-3.7-3.7-3.7-2 0-3.6 1.6-3.6 3.7 0 2 1.5 3.7 3.6 3.7M529-14.3h2.2v-1.2c.3 1 1 1.3 2 1.3h.6v-2h-.8c-1.2 0-1.7-.8-1.7-1.6v-3.5H529zM541-17.7c0-1.2.4-2 1.4-2 1 0 1.4 1 1.4 2s-.4 1.8-1.4 1.8c-.6 0-1.4-.3-1.4-1.7m-2.2 3.4h2.2v-.8c.5.5 1.2 1 2 1 2 0 3-2 3-4 0-1.8-1-3.5-3-3.5-.7 0-1.4.3-2 1v-3H539zM552-17c0 .7-.5 1.3-1.3 1.3s-1.3-.5-1.5-1.4zm-2.8-1.4c0-1 .6-1.5 1.6-1.5.5 0 1 .3 1.3.8h2.2c-.4-1.6-2-2.3-3.4-2.3-2.3 0-3.8 1.4-3.8 3.7 0 2.2 1.7 3.7 3.7 3.7 2.5 0 3.8-2 3.7-4.4zM555.6-14.3h2.2v-1.2c.4 1 1 1.3 2 1.3h.6v-2h-.8c-1.2 0-1.7-.8-1.7-1.6v-3.5h-2.4zM561.2-14.3h2.2v-1c.5.7 1.2 1.2 2 1.2 1 0 1.7-.4 2-1.2.6.7 1.3 1 2.3 1 2.2 0 2.4-1.6 2.4-3v-4H570v4c0 .8-.3 1.2-1 1.2-1 0-1-.7-1-2v-3.3h-2.3v4c0 .8-.2 1.3-.8 1.3-1 0-1.2-.5-1.2-2v-3.3h-2.3zM573.7-14.3h2.3v-7h-2.3zm2.3 1h-2.3v1.6h2.3zM581.8-15.8h-1.4V-19c0-.5.3-.6.8-.6h.6v-1.7h-1.2c-2 0-2.5.5-2.5 2.4v3.2h-1v1.5h1v2h2.4v-2h1.4zM587-15.8h-1.4V-19c0-.5.4-.6.8-.6h.6v-1.7h-1.2c-2 0-2.5.5-2.5 2.4v3.2h-1v1.5h1v2h2.3v-2h1.4zM592.8-17c0 .7-.6 1.3-1.3 1.3-.8 0-1.4-.5-1.5-1.4zm-2.8-1.4c0-1 .6-1.5 1.6-1.5.5 0 1 .3 1.3.8h2c-.4-1.6-2-2.3-3.5-2.3-2.2 0-3.8 1.4-3.8 3.7 0 2.2 1.7 3.7 3.8 3.7 2.5 0 3.7-2 3.6-4.4zM598.2-17.7c0-1 .4-2 1.4-2 1 0 1.4 1 1.4 2s-.4 1.8-1.4 1.8c-1 0-1.4-.8-1.4-1.7m5-3.6H601v.8c-.5-.6-1.2-1-2-1-2 0-3 2-3 4 0 1.7 1 3.4 3 3.4.7 0 1.4-.4 2-1v3.3h2.2zM616-21.3h-2.3v1c-.5-.7-1.4-1.2-2.2-1.2-2 0-2.6 1.2-2.6 3v4.2h2.2v-4c0-1 .4-1.3 1-1.3s1.4.3 1.4 1.6v3.7h2.3zM619.2-19c0-.3 0-.6.4-.8l.8-.2c.4 0 1 .2 1 .7 0 .6-.6.7-1 .8-1.5.3-3.3.4-3.3 2.3 0 1.6 2 2 3.3 2 1.5 0 3-.4 3.2-2.2h-2c0 .3-.2.5-.4.6 0 .2-.3.2-.6.2-.4 0-1 0-1-.5 0-.8 1.5-1 2.6-1 1.4-.4 1.8-1.4 1.8-2 0-2-1.8-2.5-3.4-2.5-1.6 0-3.3.6-3.4 2.5zM629.6-17c0 .7-.5 1.3-1.3 1.3s-1.4-.5-1.5-1.4zm-2.8-1.4c0-1 .6-1.5 1.6-1.5.5 0 1 .3 1.3.8h2c-.3-1.6-1.8-2.3-3.4-2.3-2.2 0-3.8 1.4-3.8 3.7 0 2.2 1.7 3.7 3.8 3.7 2.5 0 3.7-2 3.6-4.4zM633.2-18.8h2.5v-2.5h-2.5z"/>
  </g>
  <path fill="url(#d)" d="M618.5 485C521 402.3 411.2 313.4 473.2 190.5 423.4 337.3 546.2 412.8 649 485z" transform="matrix(1.33333 0 0 -1.33333 0 646.713)"/>
  <path fill="url(#e)" d="M583.8 485C500.3 400.5 415 307.3 473.2 191.4c-57.6 129.2 58 212.5 156 293.6z" transform="matrix(1.33333 0 0 -1.33333 0 646.713)"/>
  <path fill="url(#f)" d="M535 485c-63-87.6-122.7-182.7-61.8-293.6-60 116.2 36.5 208.6 126.4 293.6z" transform="matrix(1.33333 0 0 -1.33333 0 646.713)"/>
  <path fill="url(#g)" d="M535 485c-63-87.6-122.7-182.7-61.8-293.6-59.8 116 15 208.5 89 293.6z" transform="matrix(1.33333 0 0 -1.33333 0 646.713)"/>
  <path fill="url(#h)" d="M499.3 485c-47.6-90.6-89.6-187.5-26-293.6-61 111.3-.4 206 63 293.6z" transform="matrix(1.33333 0 0 -1.33333 0 646.713)"/>
  <path fill="url(#i)" d="M489.4 485c-40.8-91-82.4-189.8-16.2-293.6C417 297.4 461 396.7 508.7 485z" transform="matrix(1.33333 0 0 -1.33333 0 646.713)"/>
  <path fill="url(#j)" d="M475.3 485c-31.6-89-69.5-186.5-2-293.6-60.5 113.3-15.3 207.4 21 293.6z" transform="matrix(1.33333 0 0 -1.33333 0 646.713)"/>
  <path fill="url(#k)" d="M0 97.7v-16c124 18.4 253.3 41.6 266.7 173.7-33.2-135-151.3-151-266.7-157.7" transform="matrix(1.33333 0 0 -1.33333 0 646.713)"/>
  <path fill="url(#l)" d="M0 88.5V58c121.4 28.6 252.3 61.8 266.2 196.6C246.5 123 121 104.3 0 88.6" transform="matrix(1.33333 0 0 -1.33333 0 646.713)"/>
  <path fill="url(#m)" d="M0 69.5V13c116.3 48 256.3 91.4 266.2 241.6-12-131-143-160-266.2-185" transform="matrix(1.33333 0 0 -1.33333 0 646.713)"/>
  <path fill="url(#n)" d="M0 40V13c116.3 48 256.3 91.4 266.2 241.6C253.2 111.2 118.4 76.4 0 40" transform="matrix(1.33333 0 0 -1.33333 0 646.713)"/>
  <path fill="url(#o)" d="M0 14.5V0h56.5c99 56.5 205.8 117 209.7 254.6C256.2 104.6 116.4 62 0 14.6" transform="matrix(1.33333 0 0 -1.33333 0 646.713)"/>
  <path fill="url(#p)" d="M38.3 0h38.2c89.3 59.5 189.7 122.4 189.7 254.6C255.2 116.6 137.7 55 38.2 0" transform="matrix(1.33333 0 0 -1.33333 0 646.713)"/>
  <path fill="url(#q)" d="M72.8 0h27.7c77 60.6 165 124.5 165.7 254.6C255.5 117.2 154.8 57.6 72.8 0" transform="matrix(1.33333 0 0 -1.33333 0 646.713)"/>
  <path fill="url(#r)" d="M134.4 209c0-38 29.3-68.8 65.4-68.8 36 0 65.3 30.8 65.3 68.7 0 38-29 68.6-65.2 68.6-36 0-65.4-30.7-65.4-68.7" transform="matrix(1.33333 0 0 -1.33333 0 646.713)"/>
  <g clip-path="url(#s)" transform="matrix(1.33333 0 0 -1.33333 0 646.713)">
    <path fill="#ead2e6" fill-rule="evenodd" d="M151.3 209c0 28 21.7 51 48.5 51 26.7 0 48.4-23 48.4-51 0-28.2-21.7-51-48.4-51-26.8 0-48.5 22.8-48.5 51"/>
    <path fill="#4e4a41" fill-rule="evenodd" d="M243.2 209c0-25.3-19.4-45.8-43.4-45.8s-43.5 20.5-43.5 45.7c0 25.2 19.5 45.6 43.5 45.6s43.4-20.4 43.4-45.7"/>
    <path fill="#fcf9e0" fill-rule="evenodd" d="M225.7 209c0-15-11.6-27.3-26-27.3-14.2 0-25.8 12.2-25.8 27.2s11.5 27 25.8 27 26-12 26-27"/>
    <path fill="#fff" fill-rule="evenodd" d="M220.7 209c0-12.3-9.4-22-21-22-11.5 0-21 9.7-21 22 0 12 9.5 22 21 22 11.6 0 21-10 21-22"/>
    <path fill="#c4bba9" fill-rule="evenodd" d="M214.3 209c0-8.5-6.5-15.4-14.5-15.4s-14.6 7-14.6 15.3c0 8.4 6.5 15.2 14.6 15.2 8 0 14.5-6.8 14.5-15.3M392.5 195c0-50.2-38.5-90.7-86.2-90.7-47.6 0-86.2 40.5-86.2 90.6 0 50 38.7 90.6 86.3 90.6 47.7 0 86.2-40.6 86.2-90.7"/>
    <path fill="#fff" fill-rule="evenodd" d="M223.4 195c0 48 37 87 83 87 45.7 0 82.8-39 82.8-87 0-48.2-37-87.2-83-87.2-45.7 0-82.8 39-82.8 87"/>
    <path fill="#c4bba9" fill-rule="evenodd" d="M237 195c0 40.2 31 73 69.3 73 38.4 0 69.5-32.8 69.5-73 0-40.4-31-73-69.5-73-38.3 0-69.4 32.6-69.4 73"/>
  </g>
  <path fill="url(#t)" d="M241 195c0-38 29.2-68.8 65.3-68.8 36 0 65.4 30.7 65.4 68.7s-29.3 68.6-65.4 68.6c-36 0-65.3-30.7-65.3-68.7" transform="matrix(1.33333 0 0 -1.33333 0 646.713)"/>
  <g clip-path="url(#u)" transform="matrix(1.33333 0 0 -1.33333 0 646.713)">
    <path fill="#ead2e6" fill-rule="evenodd" d="M257.8 195c0 28 21.7 51 48.5 51s48.5-23 48.5-51c0-28.2-21.7-51-48.5-51s-48.5 22.8-48.5 51"/>
    <path fill="#4e4a41" fill-rule="evenodd" d="M349.8 195c0-25.3-19.5-45.8-43.5-45.8s-43.5 20.5-43.5 45.7c0 25 19.5 45.6 43.5 45.6s43.5-20.5 43.5-45.7"/>
    <path fill="#fcf9e0" fill-rule="evenodd" d="M332.2 195c0-15-11.6-27.3-26-27.3-14.2 0-25.8 12.2-25.8 27.2s11.6 27 26 27c14.2 0 25.8-12 25.8-27"/>
    <path fill="#fff" fill-rule="evenodd" d="M327.3 195c0-12.3-9.4-22-21-22s-21 9.7-21 22c0 12 9.4 22 21 22s21-10 21-22"/>
    <path fill="#c4bba9" fill-rule="evenodd" d="M321 195c0-8.6-6.6-15.4-14.7-15.4-8 0-14.6 6.8-14.6 15.3 0 8.4 6.6 15.2 14.6 15.2S321 203.4 321 195M538.2 303.8c0-40-30.8-72.3-68.7-72.3-38 0-68.8 32.3-68.8 72.3s30.8 72.2 68.8 72.2 68.7-32.3 68.7-72.2"/>
    <path fill="#fff" fill-rule="evenodd" d="M403.4 303.8c0 38.3 29.6 69.4 66 69.4 36.6 0 66-31 66-69.4 0-38.4-29.4-69.5-66-69.5-36.4 0-66 31-66 69.5"/>
    <path fill="#c4bba9" fill-rule="evenodd" d="M414 303.8c0 32 25 58.2 55.5 58.2 30.6 0 55.3-26 55.3-58.2s-24.7-58.3-55.3-58.3c-30.6 0-55.4 26-55.4 58.3"/>
    <path fill="#a7a08b" fill-rule="evenodd" d="M417.4 303.8c0 30.2 23.3 54.7 52 54.7 29 0 52.2-24.5 52.2-54.7 0-30.3-23.3-54.8-52-54.8-29 0-52.2 24.5-52.2 54.8"/>
    <path fill="#ead2e6" fill-rule="evenodd" d="M430.8 303.8c0 22.4 17.3 40.6 38.7 40.6 21.3 0 38.6-18.2 38.6-40.6 0-22.5-17.2-40.7-38.5-40.7-21.4 0-38.7 18.3-38.7 40.8"/>
    <path fill="#4e4a41" fill-rule="evenodd" d="M504 303.8c0-20.2-15.4-36.5-34.5-36.5-19.2 0-34.7 16.3-34.7 36.5 0 20 15.5 36.4 34.7 36.4 19 0 34.6-16.3 34.6-36.4"/>
    <path fill="#fcf9e0" fill-rule="evenodd" d="M490 303.8c0-12-9-21.7-20.5-21.7-11.4 0-20.7 9.8-20.7 21.8s9.3 21.7 20.7 21.7c11.4 0 20.6-9.8 20.6-21.7"/>
    <path fill="#fff" fill-rule="evenodd" d="M486.2 303.8c0-9.7-7.5-17.6-16.7-17.6-9.3 0-16.8 8-16.8 17.6 0 9.7 7.5 17.5 16.8 17.5 9.2 0 16.7-7.8 16.7-17.5"/>
    <path fill="#c4bba9" fill-rule="evenodd" d="M481 303.8c0-6.8-5-12.3-11.5-12.3-6.4 0-11.7 5.5-11.7 12.3 0 6.7 5.3 12.2 11.7 12.2 6.4 0 11.6-5.5 11.6-12.2M466.7 194c0-40-30.8-72.4-68.8-72.4S329 154 329 194c0 39.8 30.8 72.2 68.7 72.2 38 0 68.7-32.4 68.7-72.3"/>
    <path fill="#fff" fill-rule="evenodd" d="M332 194c0 38.3 29.4 69.4 66 69.4 36.4 0 66-31 66-69.5 0-38.4-29.6-69.5-66-69.5-36.6 0-66 31-66 69.4"/>
    <path fill="#c4bba9" fill-rule="evenodd" d="M342.6 194c0 32 24.7 58 55.3 58 30.5 0 55.3-26 55.3-58 0-32.2-24.8-58.3-55.4-58.3-30.7 0-55.4 26-55.4 58.2"/>
  </g>
  <path fill="url(#v)" d="M345.8 194c0-30.3 23.4-55 52-55 29 0 52.2 24.7 52.2 55 0 30.2-23.3 54.7-52 54.7-28.8 0-52.2-24.5-52.2-54.8" transform="matrix(1.33333 0 0 -1.33333 0 646.713)"/>
  <g clip-path="url(#w)" transform="matrix(1.33333 0 0 -1.33333 0 646.713)">
    <path fill="#ead2e6" fill-rule="evenodd" d="M359.3 194c0 22.4 17.3 40.5 38.6 40.5s38.6-18 38.6-40.6c0-22.5-17.3-40.7-38.7-40.7-21.4 0-38.7 18.2-38.7 40.6"/>
    <path fill="#4e4a41" fill-rule="evenodd" d="M432.6 194c0-20.2-15.5-36.5-34.7-36.5-19.2 0-34.7 16.3-34.7 36.4 0 20 15.5 36.4 34.6 36.4 19 0 34.6-16.4 34.6-36.5"/>
    <path fill="#fcf9e0" fill-rule="evenodd" d="M418.6 194c0-12-9.3-21.8-20.7-21.8-11.5 0-20.7 9.7-20.7 21.7s9.2 21.6 20.6 21.6c11.3 0 20.6-9.7 20.6-21.7"/>
    <path fill="#fff" fill-rule="evenodd" d="M414.7 194c0-9.8-7.5-17.7-16.8-17.7s-16.8 8-16.8 17.6c0 9.6 7.5 17.5 16.7 17.5s16.7-8 16.7-17.6"/>
    <path fill="#c4bba9" fill-rule="evenodd" d="M409.6 194c0-6.8-5.2-12.3-11.7-12.3-6.5 0-11.7 5.5-11.7 12.2 0 6.7 5.2 12 11.6 12 6.4 0 11.6-5.3 11.6-12M584.7 282.8c0-33.5-25.8-60.7-57.8-60.7-32 0-57.8 27.3-57.8 60.8 0 33.6 25.8 60.8 57.7 60.8 32 0 57.7-27.2 57.7-60.8"/>
    <path fill="#fff" fill-rule="evenodd" d="M471.4 282.8c0 32.3 25 58.4 55.5 58.4 30.6 0 55.5-26 55.5-58.4 0-32.2-25-58.4-55.6-58.4-30.7 0-55.6 26.2-55.6 58.4"/>
    <path fill="#c4bba9" fill-rule="evenodd" d="M480.4 282.8c0 27 20.8 49 46.5 49s46.5-22 46.5-49-20.8-49-46.6-49-46.6 22-46.6 49"/>
  </g>
  <path fill="url(#x)" d="M483 282.8c0-25.4 19.7-46 44-46 24 0 43.7 20.6 43.7 46s-19.6 46-43.8 46c-24.3 0-44-20.6-44-46" transform="matrix(1.33333 0 0 -1.33333 0 646.713)"/>
  <g clip-path="url(#y)" transform="matrix(1.33333 0 0 -1.33333 0 646.713)">
    <path fill="#ead2e6" fill-rule="evenodd" d="M494.5 282.8c0 19 14.5 34.2 32.4 34.2 18 0 32.4-15.3 32.4-34.2 0-19-14.5-34-32.5-34s-32.5 15-32.5 34"/>
    <path fill="#4e4a41" fill-rule="evenodd" d="M556 282.8c0-17-13-30.6-29-30.6s-29.2 13.7-29.2 30.6c0 17 13 30.6 29 30.6 16.2 0 29.3-13.7 29.3-30.6"/>
    <path fill="#fcf9e0" fill-rule="evenodd" d="M544.3 282.8c0-10-7.8-18.2-17.4-18.2-9.6 0-17.4 8-17.4 18.2 0 10 7.8 18.3 17.3 18.3s17.3-8 17.3-18.2"/>
    <path fill="#fff" fill-rule="evenodd" d="M541 282.8c0-8-6.3-14.8-14-14.8-7.8 0-14 6.7-14 14.8 0 8.2 6.2 14.8 14 14.8 7.7 0 14-6.6 14-14.8"/>
    <path fill="#c4bba9" fill-rule="evenodd" d="M536.7 282.8c0-5.6-4.4-10.2-9.8-10.2-5.5 0-9.8 4.6-9.8 10.2 0 5.7 4.3 10.3 9.7 10.3 5.3 0 9.7-4.5 9.7-10.2"/>
    <path fill="#c4bba9" fill-rule="evenodd" d="M528 239.5c0-36-27.8-65.2-62-65.2-34.3 0-62 29.2-62 65.2s27.7 65 62 65c34.2 0 62-29 62-65"/>
    <path fill="#fff" fill-rule="evenodd" d="M406.4 239.5C406.4 274 433 302 466 302c33 0 59.5-28 59.5-62.5C525.5 205 499 177 466 177c-33 0-59.6 28-59.6 62.5"/>
    <path fill="#c4bba9" fill-rule="evenodd" d="M416 239.5c0 29 22.4 52.5 50 52.5 27.5 0 50-23.5 50-52.5S493.4 187 466 187c-27.6 0-50 23.5-50 52.5"/>
  </g>
  <path fill="url(#z)" d="M419 239.5c0-27.3 21-49.4 47-49.4s47 22.2 47 49.5-21 49.4-47 49.4-47-22.2-47-49.5" transform="matrix(1.33333 0 0 -1.33333 0 646.713)"/>
  <g clip-path="url(#A)" transform="matrix(1.33333 0 0 -1.33333 0 646.713)">
    <path fill="#ead2e6" fill-rule="evenodd" d="M431 239.5c0 20.2 15.7 36.6 35 36.6 19.2 0 34.8-16.3 34.8-36.5S485.2 203 466 203c-19.3 0-35 16.3-35 36.5"/>
    <path fill="#4e4a41" fill-rule="evenodd" d="M497.2 239.5c0-18.2-14-33-31.2-33-17.3 0-31.3 14.8-31.3 33 0 18 14 32.8 31.3 32.8 17.2 0 31.2-14.7 31.2-32.8"/>
    <path fill="#fcf9e0" fill-rule="evenodd" d="M484.6 239.5c0-10.8-8.4-19.6-18.6-19.6-10.3 0-18.7 8.7-18.7 19.5S455.7 259 466 259c10.2 0 18.6-8.7 18.6-19.5"/>
    <path fill="#fff" fill-rule="evenodd" d="M481 239.5c0-8.8-6.7-16-15-16-8.4 0-15 7.2-15 16 0 8.7 6.6 15.8 15 15.8 8.3 0 15-7 15-15.8"/>
    <path fill="#c4bba9" fill-rule="evenodd" d="M476.4 239.5c0-6-4.7-11-10.4-11-5.8 0-10.5 5-10.5 11s4.7 11 10.5 11c5.7 0 10.4-5 10.4-11M243 278.3c0-51.8-40-94-89.4-94-49.3 0-89.3 42.2-89.3 94 0 52 40 94 89.3 94s89.3-42 89.3-94"/>
    <path fill="#fff" fill-rule="evenodd" d="M67.7 278.3c0 50 38.5 90.3 86 90.3 47.3 0 85.7-40.4 85.7-90.3 0-49.8-38.4-90.2-85.8-90.2s-86 40.5-86 90.3"/>
    <path fill="#c4bba9" fill-rule="evenodd" d="M81.6 278.3c0 41.8 32.2 75.7 72 75.7 39.7 0 72-34 72-75.7s-32.3-75.6-72-75.6c-39.8 0-72 34-72 75.6"/>
  </g>
  <path fill="url(#B)" d="M86 278.3c0-39.3 30.2-71 67.6-71 37.4 0 67.7 31.7 67.7 71s-30.3 71.2-67.7 71.2c-37.4 0-67.7-32-67.7-71.2" transform="matrix(1.33333 0 0 -1.33333 0 646.713)"/>
  <g clip-path="url(#C)" transform="matrix(1.33333 0 0 -1.33333 0 646.713)">
    <path fill="#ead2e6" fill-rule="evenodd" d="M103.4 278.3c0 29.2 22.5 52.8 50.2 52.8 27.7 0 50.2-23.5 50.2-52.7 0-29-22.5-52.8-50.2-52.8-27.7 0-50.2 23.7-50.2 52.8"/>
    <path fill="#4e4a41" fill-rule="evenodd" d="M198.6 278.3c0-26-20.2-47.3-45-47.3-25 0-45 21.2-45 47.3 0 26.2 20 47.4 45 47.4 24.8 0 45-21.2 45-47.4"/>
    <path fill="#fcf9e0" fill-rule="evenodd" d="M180.4 278.3c0-15.5-12-28.2-26.8-28.2s-26.8 12.8-26.8 28.3c0 15.6 12 28.2 26.8 28.2s26.8-12.6 26.8-28.2"/>
    <path fill="#fff" fill-rule="evenodd" d="M175.3 278.3c0-12.6-9.7-22.8-21.7-22.8S132 265.7 132 278.3c0 12.6 9.6 23 21.6 23 12 0 21.7-10.4 21.7-23"/>
    <path fill="#c4bba9" fill-rule="evenodd" d="M168.7 278.3c0-8.7-6.8-15.8-15-15.8-8.4 0-15.2 7-15.2 15.8s6.8 16 15 16c8.4 0 15.2-7.2 15.2-16"/>
    <path fill="#ec2224" fill-rule="evenodd" d="M227.6 238.5c0-24.8-19-45-42.7-45-23.6 0-42.8 20.2-42.8 45s19.2 44.8 42.7 44.8c23.5 0 42.6-20 42.6-44.8"/>
    <path fill="#95c83d" fill-rule="evenodd" d="M144 238.5c0 23.8 18.3 43 41 43 22.6 0 41-19.2 41-43 0-24-18.4-43.2-41-43.2-22.7 0-41 19.3-41 43.2"/>
    <path fill="#ec2224" fill-rule="evenodd" d="M150.5 238.5c0 20 15.4 36 34.4 36s34.3-16 34.3-36-15.4-36.2-34.4-36.2-34.5 16.2-34.5 36.2"/>
    <path fill="#94c33d" fill-rule="evenodd" d="M152.6 238.5c0 18.8 14.5 34 32.3 34 17.8 0 32.3-15.2 32.3-34s-14.5-34-32.4-34c-18 0-32.4 15.2-32.4 34"/>
    <path fill="#ec1c24" fill-rule="evenodd" d="M161 238.5c0 14 10.7 25.2 24 25.2 13.2 0 24-11.3 24-25.2 0-14-10.8-25.3-24-25.3-13.3 0-24 11.3-24 25.3"/>
    <path fill="#6ea843" fill-rule="evenodd" d="M206.5 238.5c0-12.5-9.7-22.7-21.6-22.7-12 0-21.6 10.2-21.6 22.7S173 261 185 261c11.8 0 21.5-10 21.5-22.5"/>
    <path fill="#334e24" fill-rule="evenodd" d="M197.8 238.5c0-7.5-5.8-13.5-13-13.5-7 0-12.7 6-12.7 13.5 0 7.4 6 13.4 13 13.4s12.8-6 12.8-13.5"/>
    <path fill="#fff" fill-rule="evenodd" d="M195.3 238.5c0-6-4.6-11-10.4-11-5.8 0-10.5 5-10.5 11s4.7 11 10.4 11 10.3-5 10.3-11"/>
    <path fill="#ec2224" fill-rule="evenodd" d="M192 238.5c0-4.2-3-7.6-7-7.6s-7.3 3.3-7.3 7.5 3.2 7.6 7.2 7.6 7-3.3 7-7.5"/>
    <path fill="#00b7d3" fill-rule="evenodd" d="M243.5 323.4c0 25.3 19.5 45.8 43.5 45.8s43.5-20.5 43.5-45.8c0-25.3-19.4-45.7-43.5-45.7-24 0-43.5 20.4-43.5 45.7"/>
    <path fill="#ec1c6d" fill-rule="evenodd" d="M253.6 323.4c0 19.4 15 35.2 33.4 35.2 18.5 0 33.5-15.8 33.5-35.2 0-19.4-15-35.2-33.5-35.2s-33.4 15.8-33.4 35.2"/>
    <path fill="#00b2d6" fill-rule="evenodd" d="M309.3 323.4c0-13-10-23.5-22.3-23.5s-22.3 10.5-22.3 23.4c0 13 10 23.5 22.3 23.5s22.3-10.6 22.3-23.6"/>
    <path fill="#ed1d55" fill-rule="evenodd" d="M306.3 323.4c0-11.2-8.6-20.2-19.3-20.2-10.6 0-19.2 9-19.2 20.2s8.6 20.2 19.2 20.2c10.7 0 19.3-9 19.3-20.2"/>
    <path fill="#00b7d3" fill-rule="evenodd" d="M294 323.4c0-4-3.2-7.2-7-7.2s-7 3.2-7 7.2 3.2 7.3 7 7.3 7-3.3 7-7.3"/>
    <path fill="#172313" fill-rule="evenodd" d="M369.8 182.2c0 16.4 12.6 29.7 28.2 29.7s28.2-13.4 28.2-29.8-12.6-29.6-28.2-29.6-28.2 13.2-28.2 29.6"/>
    <path fill="#6753a2" fill-rule="evenodd" d="M416.4 182.2c0-10.7-8.2-19.3-18.4-19.3s-18.4 8.5-18.4 19.2 8.2 19.4 18.4 19.4 18.4-8.7 18.4-19.4"/>
    <path fill="#b2d235" fill-rule="evenodd" d="M412.4 182.2c0-8.3-6.4-15-14.4-15s-14.4 6.7-14.4 15c0 8.4 6.5 15.2 14.4 15.2 8 0 14.4-6.8 14.4-15.2"/>
    <path fill="#6753a2" fill-rule="evenodd" d="M405 182.2c0-4-3-7.3-7-7.3-3.8 0-7 3.2-7 7.2s3.2 7.4 7 7.4c4 0 7-3.3 7-7.4"/>
    <path fill="#d61f27" fill-rule="evenodd" d="M273 288.6c0-33-25.6-60-57-60-31.5 0-57 27-57 60s25.5 60 57 60c31.4 0 57-27 57-60"/>
    <path fill="#118743" fill-rule="evenodd" d="M166.3 288.6c0 29 22.2 52.2 49.6 52.2 27.4 0 49.6-23.3 49.6-52.2 0-28.8-22.2-52.2-49.7-52.2-27.5 0-49.7 23.4-49.7 52.2"/>
    <path fill="#f5ea14" fill-rule="evenodd" d="M171.5 288.6c0 25.8 20 46.7 44.4 46.7 24.5 0 44.3-21 44.3-46.7 0-25.8-19.8-46.7-44.4-46.7-24.6 0-44.5 20.8-44.5 46.6"/>
    <path fill="#d61f27" fill-rule="evenodd" d="M175.6 288.6c0 23.5 18 42.5 40.3 42.5 22.2 0 40.3-19 40.3-42.4s-18-42.4-40.4-42.4-40.4 19-40.4 42.4"/>
    <path fill="#fff" fill-rule="evenodd" d="M183.6 288.6c0 18.8 14.5 34 32.3 34 17.8 0 32.2-15.2 32.2-34 0-18.7-14.4-34-32.3-34-18 0-32.4 15.3-32.4 34"/>
    <path fill="#375fab" fill-rule="evenodd" d="M243.4 288.6c0-16-12.3-28.8-27.5-28.8s-27.5 13-27.5 28.8c0 16 12.3 29 27.4 29 15 0 27.4-13 27.4-29"/>
    <path fill="#a02a21" fill-rule="evenodd" d="M237.2 288.6c0-12.3-9.5-22.3-21.3-22.3s-21.3 10-21.3 22.3c0 12.4 9.5 22.3 21.2 22.3s21.2-10 21.2-22.4"/>
    <path fill="#fff" fill-rule="evenodd" d="M224 288.6c0-4.6-3.6-8.4-8-8.4-4.5 0-8 3.8-8 8.4 0 4.7 3.5 8.5 8 8.5 4.4 0 8-3.7 8-8.4"/>
    <path fill="#f9ec23" fill-rule="evenodd" d="M462.3 237.3c0 15.7 12 28.5 27 28.5s27-12.8 27-28.5-12-28.4-27-28.4-27 12.6-27 28.3"/>
    <path fill="#ec1c6d" fill-rule="evenodd" d="M468.5 237.3c0 12 9.4 22 21 22 11.3 0 20.7-10 20.7-22s-9.4-22-20.8-22c-11.5 0-21 10-21 22"/>
    <path fill="#fff" fill-rule="evenodd" d="M503.2 237.3c0-8-6.2-14.6-13.8-14.6-7.7 0-14 6.6-14 14.6s6.3 14.6 14 14.6c7.6 0 13.8-6.6 13.8-14.7"/>
    <path fill="#ed1d55" fill-rule="evenodd" d="M501.3 237.3c0-7-5.3-12.6-12-12.6-6.6 0-12 5.7-12 12.6 0 7 5.4 12.6 12 12.6 6.7 0 12-5.7 12-12.7"/>
    <path fill="#fff" fill-rule="evenodd" d="M493.6 237.3c0-2.5-2-4.5-4.2-4.5-2.4 0-4.3 2-4.3 4.5s2 4.5 4.4 4.5c2.3 0 4.2-2 4.2-4.5"/>
    <path fill="#ffea3d" fill-rule="evenodd" d="M188 303c0-29.4-22.8-53.2-50.7-53.2-28 0-50.6 23.8-50.6 53.2 0 29.3 22.7 53 50.6 53 28 0 50.6-23.7 50.6-53"/>
    <path fill="#ec2224" fill-rule="evenodd" d="M93.8 303c0 25.2 19.5 45.7 43.5 45.7s43.5-20.5 43.5-45.7c0-25.3-19.4-45.8-43.5-45.8-24 0-43.5 20.5-43.5 45.8"/>
    <path fill="#ffea40" fill-rule="evenodd" d="M96 303c0 24 18.5 43.4 41.3 43.4 22.8 0 41.3-19.5 41.3-43.4 0-24-18.5-43.4-41.3-43.4C114.5 259.6 96 279 96 303"/>
    <path fill="#ed1f46" fill-rule="evenodd" d="M101.4 303c0 20.8 16 37.7 36 37.7 19.7 0 35.8-17 35.8-37.7 0-21-16-37.8-36-37.8-19.7 0-35.8 17-35.8 37.8"/>
    <path fill="#ec2224" fill-rule="evenodd" d="M110 303c0 16 12.2 28.7 27.3 28.7 15 0 27.4-12.8 27.4-28.7 0-16-12.3-28.8-27.4-28.8-15 0-27.4 13-27.4 28.8"/>
  </g>
  <path fill="url(#D)" d="M111.8 303c0-15 11.4-26.8 25.5-26.8 14 0 25.5 12 25.5 26.8s-11.4 26.8-25.5 26.8c-14 0-25.5-12-25.5-26.8" transform="matrix(1.33333 0 0 -1.33333 0 646.713)"/>
  <g clip-path="url(#E)" transform="matrix(1.33333 0 0 -1.33333 0 646.713)">
    <path fill="#ed2524" fill-rule="evenodd" d="M157 303c0-11.5-8.8-20.8-19.7-20.8-11 0-19.7 9.3-19.7 20.8 0 11.4 8.8 20.7 19.7 20.7 11 0 19.7-9.3 19.7-20.7"/>
    <path fill="#fff" fill-rule="evenodd" d="M149.6 303c0-7.2-5.5-13-12.3-13-6.8 0-12.3 5.8-12.3 13 0 7 5.5 13 12.3 13 6.8 0 12.3-6 12.3-13"/>
    <path fill="#3e54a4" fill-rule="evenodd" d="M546.4 294.6c0-32-24.6-58-55-58s-55 26-55 58 24.6 57.8 55 57.8 55-26 55-57.8"/>
    <path fill="#6262ab" fill-rule="evenodd" d="M444 294.6c0 27.5 21.3 49.8 47.4 49.8 26.2 0 47.4-22.3 47.4-49.8 0-27.5-21.2-49.8-47.4-49.8-26 0-47.3 22.3-47.3 49.8"/>
    <path fill="#fff" fill-rule="evenodd" d="M446.5 294.6c0 26 20 47.2 45 47.2 24.7 0 44.8-21 44.8-47.2 0-26-20-47.3-45-47.3-24.7 0-44.8 21.2-44.8 47.3"/>
    <path fill="#42297a" fill-rule="evenodd" d="M452.3 294.6c0 22.7 17.5 41 39 41 21.7 0 39.2-18.3 39.2-41s-17.5-41-39-41c-21.7 0-39.2 18.3-39.2 41"/>
    <path fill="#fff" fill-rule="evenodd" d="M461.6 294.6c0 17.3 13.4 31.3 29.8 31.3 16.5 0 29.8-14 29.8-31.4 0-17.3-13.3-31.3-29.8-31.3-16.4 0-29.8 14-29.8 31.3"/>
    <path fill="#3855a4" fill-rule="evenodd" d="M519.2 294.6c0-16-12.5-29.2-27.8-29.2s-27.7 13-27.7 29.2c0 16 12.4 29 27.7 29 15.3 0 27.8-13 27.8-29"/>
    <path fill="#88c8ee" fill-rule="evenodd" d="M513 294.6c0-12.5-9.7-22.6-21.6-22.6-12 0-21.5 10-21.5 22.6 0 12.5 9.5 22.6 21.4 22.6 12 0 21.5-10 21.5-22.6"/>
    <path fill="#3f5eaa" fill-rule="evenodd" d="M504.8 294.6c0-7.8-6-14-13.4-14s-13.4 6.2-13.4 14c0 7.7 6 14 13.4 14s13.4-6.3 13.4-14"/>
    <path fill="#ec2224" fill-rule="evenodd" d="M288 265.3c0 23.7 18.3 43 41 43 22.4 0 40.7-19.3 40.7-43s-18.3-43-40.8-43c-22.7 0-41 19.3-41 43"/>
    <path fill="#f89e20" fill-rule="evenodd" d="M365.6 265.3c0-21.3-16.4-38.6-36.7-38.6-20.4 0-36.8 17.3-36.8 38.6 0 21.4 16.4 38.6 36.7 38.6 20.2 0 36.6-17.3 36.6-38.7"/>
    <path fill="#ed2524" fill-rule="evenodd" d="M352.2 265.3c0-13.5-10.4-24.5-23.3-24.5-13 0-23.4 11-23.4 24.5 0 13.6 10.4 24.5 23.3 24.5 12.8 0 23.2-11 23.2-24.5"/>
    <path fill="#ffe709" fill-rule="evenodd" d="M348.2 265.3c0-11-8.7-20.2-19.3-20.2-10.7 0-19.4 9.2-19.4 20.3 0 11.2 8.7 20.3 19.3 20.3 10.5 0 19.2-9 19.2-20.3"/>
    <path fill="#ec2224" fill-rule="evenodd" d="M455.3 311.4c0-38.3-29.6-69.4-66-69.4-36.5 0-66 31-66 69.4 0 38.3 29.5 69.4 66 69.4 36.4 0 66-31 66-69.4"/>
    <path fill="#95c83d" fill-rule="evenodd" d="M325.8 311.4c0 36.8 28.4 66.7 63.5 66.7 35 0 63.4-29.8 63.4-66.6s-28.4-66.7-63.4-66.7-63.5 30-63.5 66.7"/>
    <path fill="#ec2224" fill-rule="evenodd" d="M336 311.4c0 31 24 56 53.3 56 29.3 0 53-25 53-56s-23.7-56-53-56c-29.4 0-53.2 25-53.2 56"/>
  </g>
  <path fill="url(#F)" d="M339.3 311.4c0-29 22.4-52.6 50-52.6s50 23.6 50 52.6-22.4 52.6-50 52.6-50-23.6-50-52.6" transform="matrix(1.33333 0 0 -1.33333 0 646.713)"/>
  <g clip-path="url(#G)" transform="matrix(1.33333 0 0 -1.33333 0 646.713)">
    <path fill="#ec1c24" fill-rule="evenodd" d="M352.2 311.4c0 21.5 16.6 39 37 39 20.6 0 37.2-17.5 37.2-39s-16.6-39-37-39c-20.6 0-37.2 17.5-37.2 39"/>
    <path fill="#6ea843" fill-rule="evenodd" d="M422.6 311.4c0-19.3-15-35-33.3-35-18.4 0-33.3 15.7-33.3 35s15 35 33.3 35c18.4 0 33.3-15.7 33.3-35"/>
    <path fill="#334e24" fill-rule="evenodd" d="M409 311.4c0-11.5-8.8-20.8-19.7-20.8-11 0-19.8 9.3-19.8 20.8s8.8 20.8 19.8 20.8S409 323 409 311.4"/>
    <path fill="#fff" fill-rule="evenodd" d="M405.3 311.4c0-9.3-7.2-17-16-17-9 0-16 7.7-16 17s7 17 16 17c8.8 0 16-7.7 16-17"/>
    <path fill="#ec2224" fill-rule="evenodd" d="M400.4 311.4c0-6.5-5-11.7-11-11.7-6.3 0-11.3 5.2-11.3 11.7 0 6.5 5 11.7 11.3 11.7 6 0 11-5 11-11.6"/>
    <path fill="#6dc9cc" fill-rule="evenodd" d="M324.7 204.3c0-41.2-31.7-74.6-71-74.6-39 0-70.8 33.4-70.8 74.6 0 41.2 31.7 74.6 70.8 74.6 39.2 0 71-33.5 71-74.7"/>
    <path fill="#443090" fill-rule="evenodd" d="M192.8 204.3c0 35.4 27.3 64.2 61 64.2s61-28.8 61-64.2c0-35.4-27.3-64.2-61-64.2s-61 29-61 64.3"/>
    <path fill="#6ec9cf" fill-rule="evenodd" d="M196 204.3c0 33.6 25.8 61 57.8 61 32 0 58-27.4 58-61s-26-61-58-61-58 27.4-58 61"/>
    <path fill="#ec297b" fill-rule="evenodd" d="M203.4 204.3c0 29.2 22.6 53 50.4 53 27.8 0 50.4-23.8 50.4-53 0-29.3-22.6-53-50.4-53-27.8 0-50.4 23.7-50.4 53"/>
    <path fill="#443090" fill-rule="evenodd" d="M215.4 204.3c0 22.3 17.2 40.3 38.4 40.3s38.4-18 38.4-40.3c0-22.3-17.2-40.3-38.4-40.3s-38.4 18-38.4 40.3"/>
    <path fill="#36a1bd" fill-rule="evenodd" d="M289.6 204.3c0-20.8-16-37.6-35.8-37.6-19.7 0-35.8 16.8-35.8 37.6s16 37.6 35.8 37.6c19.8 0 35.8-17 35.8-37.7"/>
    <path fill="#f9ec31" fill-rule="evenodd" d="M281.5 204.3c0-16-12.4-29-27.7-29-15.3 0-27.7 13-27.7 29s12.5 29 27.8 29 27.7-13 27.7-29"/>
    <path fill="#fff" fill-rule="evenodd" d="M271 204.3c0-10-7.7-18-17.2-18s-17.2 8-17.2 18 7.7 18 17.2 18 17.3-8 17.3-18"/>
    <path fill="#7f3e1b" fill-rule="evenodd" d="M247.7 257.3c0 19.2 14.8 34.8 33 34.8 18.4 0 33.3-15.5 33.3-34.7 0-19.3-15-35-33.2-35-18.3 0-33 15.7-33 35"/>
    <path fill="#22a54a" fill-rule="evenodd" d="M254.5 257.3c0 15.2 11.8 27.6 26.3 27.6 14.6 0 26.3-12.5 26.3-27.7 0-15.3-11.6-27.7-26.2-27.7-14.5 0-26.3 12.4-26.3 27.7"/>
    <path fill="#f5ea14" fill-rule="evenodd" d="M303 257.3c0-13-10-23.4-22.2-23.4s-22.2 10.4-22.2 23.3c0 13 10 23.3 22.2 23.3 12.3 0 22.2-10.4 22.2-23.3"/>
    <path fill="#38a648" fill-rule="evenodd" d="M293 257.3c0-7.2-5.4-13-12.2-13-6.8 0-12.3 5.8-12.3 13 0 7 5.5 13 12.3 13 6.8 0 12.3-6 12.3-13"/>
    <path fill="#fff" fill-rule="evenodd" d="M288 257.3c0-4-3.3-7.4-7.2-7.4-4 0-7 3.2-7 7.3 0 4 3 7.4 7 7.4s7-3.3 7-7.4"/>
    <path fill="#4abda0" fill-rule="evenodd" d="M484.7 245.4c0-33-25.5-60-57-60s-57 27-57 60 25.5 60 57 60 57-27 57-60"/>
    <path fill="#443090" fill-rule="evenodd" d="M378.7 245.4c0 28.4 22 51.5 49 51.5s49-23.2 49-51.6c0-28.5-22-51.6-49-51.6s-49 23-49 51.6"/>
    <path fill="#ffe717" fill-rule="evenodd" d="M381.2 245.4c0 27 20.8 49 46.5 49s46.5-22 46.5-49-20.8-49-46.5-49-46.5 22-46.5 49"/>
    <path fill="#1e4a9e" fill-rule="evenodd" d="M387.2 245.4c0 23.5 18 42.5 40.5 42.5 22.4 0 40.5-19 40.5-42.6 0-23.5-18-42.6-40.5-42.6-22.4 0-40.5 19-40.5 42.6"/>
    <path fill="#ee4423" fill-rule="evenodd" d="M395.5 245.4c0 18.7 14.4 34 32.2 34 17.8 0 32.2-15.3 32.2-34 0-18.8-14.5-34-32.3-34-17.8 0-32.2 15.2-32.2 34"/>
    <path fill="#57bc7c" fill-rule="evenodd" d="M456.4 245.4c0-16.7-12.8-30.2-28.7-30.2-16 0-28.7 13.5-28.7 30.2s12.8 30.2 28.7 30.2c16 0 28.7-13.5 28.7-30.2"/>
    <path fill="#183f6e" fill-rule="evenodd" d="M450 245.4c0-13-10-23.4-22.3-23.4s-22.3 10.5-22.3 23.4c0 13 10 23.4 22.3 23.4s22.2-10.5 22.2-23.4"/>
    <path fill="#f6eb28" fill-rule="evenodd" d="M441.6 245.4c0-8-6.3-14.6-14-14.6-7.6 0-13.8 6.5-13.8 14.6 0 8 6.2 14.5 14 14.5 7.5 0 13.8-6.6 13.8-14.6"/>
    <path fill="#86d2de" fill-rule="evenodd" d="M398 202c0-29.8-22.8-54-51-54-28.3 0-51.2 24.2-51.2 54 0 29.6 23 53.7 51.2 53.7 28.2 0 51-24 51-53.8"/>
    <path fill="#2b328b" fill-rule="evenodd" d="M303 202c0 25.5 19.7 46.2 44 46.2s44-20.7 44-46.3c0-25.6-19.7-46.4-44-46.4s-44 20.8-44 46.3"/>
    <path fill="#fff" fill-rule="evenodd" d="M305.2 202c0 24 18.7 43.8 41.8 43.8 23 0 41.7-19.7 41.7-44 0-24-18.7-43.8-41.7-43.8-23 0-41.8 19.7-41.8 44"/>
    <path fill="#b8529e" fill-rule="evenodd" d="M310.6 202c0 21 16.3 38 36.4 38 20 0 36.3-17 36.3-38 0-21.2-16.3-38.3-36.3-38.3-20 0-36.4 17-36.4 38.2"/>
    <path fill="#2d0f2f" fill-rule="evenodd" d="M319.3 202c0 16 12.4 29 27.7 29 15.3 0 27.6-13 27.6-29 0-16.2-12.3-29.2-27.6-29.2s-27.7 13-27.7 29"/>
    <path fill="#00b2d6" fill-rule="evenodd" d="M372.8 202c0-15-11.6-27.2-25.8-27.2-14.3 0-25.8 12-25.8 27S332.7 229 347 229c14.2 0 25.8-12 25.8-27"/>
    <path fill="#ec3391" fill-rule="evenodd" d="M367 202c0-11.7-9-21-20-21s-20 9.3-20 21c0 11.5 9 21 20 21s20-9.5 20-21"/>
    <path fill="#fff" fill-rule="evenodd" d="M359.4 202c0-7.3-5.6-13.2-12.4-13.2-7 0-12.5 6-12.5 13 0 7.3 5.6 13.2 12.5 13.2 6.8 0 12.4-6 12.4-13"/>
  </g>
</svg>
