<svg xmlns="http://www.w3.org/2000/svg" width="1495.2" height="666" overflow="hidden" style="position:relative" xmlns:xlink="http://www.w3.org/1999/xlink"><defs style="-webkit-tap-highlight-color:rgba(0, 0, 0, 0)"><path id="a" d="M5 0L0 2.5 5 5z" stroke-linecap="round" style="-webkit-tap-highlight-color:rgba(0, 0, 0, 0)"/><marker id="b" style="-webkit-tap-highlight-color:rgba(0, 0, 0, 0)" markerHeight="5" markerWidth="5" orient="auto" refX="2.5" refY="2.5"><use transform="rotate(180 2.5 2.5)" style="-webkit-tap-highlight-color:rgba(0, 0, 0, 0)" xlink:href="#a"/></marker><marker id="c" style="-webkit-tap-highlight-color:rgba(0, 0, 0, 0)" markerHeight="5" markerWidth="5" orient="auto" refX="2.5" refY="2.5"><use transform="rotate(180 2.5 2.5)" style="-webkit-tap-highlight-color:rgba(0, 0, 0, 0)" xlink:href="#a"/></marker><marker id="d" style="-webkit-tap-highlight-color:rgba(0, 0, 0, 0)" markerHeight="5" markerWidth="5" orient="auto" refX="2.5" refY="2.5"><use transform="rotate(180 2.5 2.5)" style="-webkit-tap-highlight-color:rgba(0, 0, 0, 0)" xlink:href="#a"/></marker><marker id="e" style="-webkit-tap-highlight-color:rgba(0, 0, 0, 0)" markerHeight="5" markerWidth="5" orient="auto" refX="2.5" refY="2.5"><use transform="rotate(180 2.5 2.5)" style="-webkit-tap-highlight-color:rgba(0, 0, 0, 0)" xlink:href="#a"/></marker><marker id="f" style="-webkit-tap-highlight-color:rgba(0, 0, 0, 0)" markerHeight="5" markerWidth="5" orient="auto" refX="2.5" refY="2.5"><use transform="rotate(180 2.5 2.5)" style="-webkit-tap-highlight-color:rgba(0, 0, 0, 0)" xlink:href="#a"/></marker><marker id="g" style="-webkit-tap-highlight-color:rgba(0, 0, 0, 0)" markerHeight="5" markerWidth="5" orient="auto" refX="2.5" refY="2.5"><use transform="rotate(180 2.5 2.5)" style="-webkit-tap-highlight-color:rgba(0, 0, 0, 0)" xlink:href="#a"/></marker><marker id="h" style="-webkit-tap-highlight-color:rgba(0, 0, 0, 0)" markerHeight="5" markerWidth="5" orient="auto" refX="2.5" refY="2.5"><use transform="rotate(180 2.5 2.5)" style="-webkit-tap-highlight-color:rgba(0, 0, 0, 0)" xlink:href="#a"/></marker><marker id="i" style="-webkit-tap-highlight-color:rgba(0, 0, 0, 0)" markerHeight="5" markerWidth="5" orient="auto" refX="2.5" refY="2.5"><use transform="rotate(180 2.5 2.5)" style="-webkit-tap-highlight-color:rgba(0, 0, 0, 0)" xlink:href="#a"/></marker><marker id="j" style="-webkit-tap-highlight-color:rgba(0, 0, 0, 0)" markerHeight="5" markerWidth="5" orient="auto" refX="2.5" refY="2.5"><use transform="rotate(180 2.5 2.5)" style="-webkit-tap-highlight-color:rgba(0, 0, 0, 0)" xlink:href="#a"/></marker><marker id="k" style="-webkit-tap-highlight-color:rgba(0, 0, 0, 0)" markerHeight="5" markerWidth="5" orient="auto" refX="2.5" refY="2.5"><use transform="rotate(180 2.5 2.5)" style="-webkit-tap-highlight-color:rgba(0, 0, 0, 0)" xlink:href="#a"/></marker><marker id="l" style="-webkit-tap-highlight-color:rgba(0, 0, 0, 0)" markerHeight="5" markerWidth="5" orient="auto" refX="2.5" refY="2.5"><use transform="rotate(180 2.5 2.5)" style="-webkit-tap-highlight-color:rgba(0, 0, 0, 0)" xlink:href="#a"/></marker><marker id="m" style="-webkit-tap-highlight-color:rgba(0, 0, 0, 0)" markerHeight="5" markerWidth="5" orient="auto" refX="2.5" refY="2.5"><use transform="rotate(180 2.5 2.5)" style="-webkit-tap-highlight-color:rgba(0, 0, 0, 0)" xlink:href="#a"/></marker><marker id="n" style="-webkit-tap-highlight-color:rgba(0, 0, 0, 0)" markerHeight="5" markerWidth="5" orient="auto" refX="2.5" refY="2.5"><use transform="rotate(180 2.5 2.5)" style="-webkit-tap-highlight-color:rgba(0, 0, 0, 0)" xlink:href="#a"/></marker><marker id="o" style="-webkit-tap-highlight-color:rgba(0, 0, 0, 0)" markerHeight="5" markerWidth="5" orient="auto" refX="2.5" refY="2.5"><use transform="rotate(180 2.5 2.5)" style="-webkit-tap-highlight-color:rgba(0, 0, 0, 0)" xlink:href="#a"/></marker><marker id="p" style="-webkit-tap-highlight-color:rgba(0, 0, 0, 0)" markerHeight="5" markerWidth="5" orient="auto" refX="2.5" refY="2.5"><use transform="rotate(180 2.5 2.5)" style="-webkit-tap-highlight-color:rgba(0, 0, 0, 0)" xlink:href="#a"/></marker></defs><g fill="none" stroke="#000" stroke-width="2"><path d="M87.4 59v548M243 59v548M446 59v548M558.3 59v548M799.8 59v548M941 59v548m131.5-548v548m126.7-548v548M1431 59v548"/><path d="M87.4 98H238" marker-end="url(#b)"/><path d="M243 137h310.3" marker-end="url(#c)"/><g stroke-dasharray="6 2"><path d="M243 176h198" marker-end="url(#d)"/><path d="M558.3 215h236.5" marker-end="url(#e)"/><path d="M799.8 254H563.3" marker-end="url(#f)"/></g><path d="M558.3 293H936" marker-end="url(#g)"/><path d="M941 332h126.5" marker-end="url(#h)"/><path d="M1072.5 352H946" marker-end="url(#i)"/><path d="M941 391h253.2" marker-end="url(#j)"/><path d="M1199.2 430h227" marker-end="url(#k)"/><path d="M1431 450h-226.8" marker-end="url(#l)"/><path d="M1199.2 470H946" marker-end="url(#m)"/><path d="M941 509H563.3" marker-end="url(#n)"/><path d="M558.3 548H248" marker-end="url(#o)"/><path d="M243 587H92.4" marker-end="url(#p)"/></g><g fill="#fff" fill-opacity=".8"><g stroke="#000" stroke-width="2"><rect width="154.9" height="39" x="10" y="20" rx="0" ry="0"/><rect width="154.9" height="39" x="10" y="607" rx="0" ry="0"/><rect width="116.3" height="39" x="184.9" y="20" rx="0" ry="0"/><rect width="116.3" height="39" x="184.9" y="607" rx="0" ry="0"/><rect width="87.4" height="39" x="402.3" y="20" rx="0" ry="0"/><rect width="87.4" height="39" x="402.3" y="607" rx="0" ry="0"/><rect width="97.1" height="39" x="509.8" y="20" rx="0" ry="0"/><rect width="97.1" height="39" x="509.8" y="607" rx="0" ry="0"/><rect width="126" height="39" x="736.9" y="20" rx="0" ry="0"/><rect width="126" height="39" x="736.9" y="607" rx="0" ry="0"/><rect width="116.3" height="39" x="882.8" y="20" rx="0" ry="0"/><rect width="116.3" height="39" x="882.8" y="607" rx="0" ry="0"/><rect width="106.7" height="39" x="1019.1" y="20" rx="0" ry="0"/><rect width="106.7" height="39" x="1019.1" y="607" rx="0" ry="0"/><rect width="106.7" height="39" x="1145.8" y="20" rx="0" ry="0"/><rect width="106.7" height="39" x="1145.8" y="607" rx="0" ry="0"/><rect width="68.2" height="39" x="1397" y="20" rx="0" ry="0"/><rect width="68.2" height="39" x="1397" y="607" rx="0" ry="0"/></g><rect width="116.6" height="19" x="106.9" y="74.5" rx="0" ry="0"/><rect width="116.6" height="19" x="342.4" y="113.5" rx="0" ry="0"/><rect width="201.3" height="19" x="243.8" y="152.5" rx="0" ry="0"/><rect width="243.7" height="19" x="557.2" y="191.5" rx="0" ry="0"/><rect width="63.6" height="19" x="647.3" y="230.5" rx="0" ry="0"/><rect width="137.7" height="19" x="680.7" y="269.5" rx="0" ry="0"/><rect width="53" height="19" x="980.2" y="308.5" rx="0" ry="0"/><rect width="53" height="19" x="1043.6" y="367.5" rx="0" ry="0"/><rect width="233.1" height="19" x="1198.6" y="406.5" rx="0" ry="0"/><rect width="74.1" height="19" x="712.5" y="485.5" rx="0" ry="0"/><rect width="127.2" height="19" x="337" y="524.5" rx="0" ry="0"/><rect width="127.2" height="19" x="101.6" y="563.5" rx="0" ry="0"/></g><g font-family="'Andale Mono', monospace" font-size="16" text-anchor="middle"><text x="87.4" y="39.5"><tspan dy="5.5">Prozess Nutzer</tspan></text><text x="87.4" y="626.5"><tspan dy="5.5">Prozess Nutzer</tspan></text><text x="243" y="39.5"><tspan dy="5.5">Controller</tspan></text><text x="243" y="626.5"><tspan dy="5.5">Controller</tspan></text><text x="446" y="39.5"><tspan dy="5.5">Monitor</tspan></text><text x="446" y="626.5"><tspan dy="5.5">Monitor</tspan></text><text x="558.3" y="39.5"><tspan dy="5.5">Executor</tspan></text><text x="558.3" y="626.5"><tspan dy="5.5">Executor</tspan></text><text x="799.8" y="39.5"><tspan dy="5.5">Data Center</tspan></text><text x="799.8" y="626.5"><tspan dy="5.5">Data Center</tspan></text><text x="941" y="39.5"><tspan dy="5.5">BP Instanz</tspan></text><text x="941" y="626.5"><tspan dy="5.5">BP Instanz</tspan></text><text x="1072.5" y="39.5"><tspan dy="5.5">Service 1</tspan></text><text x="1072.5" y="626.5"><tspan dy="5.5">Service 1</tspan></text><text x="1199.2" y="39.5"><tspan dy="5.5">Service 2</tspan></text><text x="1199.2" y="626.5"><tspan dy="5.5">Service 2</tspan></text><text x="1431.1" y="39.5"><tspan dy="5.5">Bimbo</tspan></text><text x="1431.1" y="626.5"><tspan dy="5.5">Bimbo</tspan></text><text x="165.2" y="84"><tspan dy="5.5">starte BP A</tspan></text><text x="400.7" y="123"><tspan dy="5.5">starte BP A</tspan></text><text x="344.5" y="162"><tspan dy="5.5">BP A wird gestartet</tspan></text><text x="679.1" y="201"><tspan dy="5.5">gib mir config von BP A</tspan></text><text x="679.1" y="240"><tspan dy="5.5">config</tspan></text><text x="749.6" y="279"><tspan dy="5.5">starte config</tspan></text><text x="1006.7" y="318"><tspan dy="5.5">nutzt</tspan></text><text x="1070.1" y="377"><tspan dy="5.5">nutzt</tspan></text><text x="1315.1" y="416"><tspan dy="5.5">fordert Interaktion an</tspan></text><text x="749.6" y="495"><tspan dy="5.5">beendet</tspan></text><text x="400.7" y="534"><tspan dy="5.5">BP A beendet</tspan></text><text x="165.2" y="573"><tspan dy="5.5">BP A beendet</tspan></text></g></svg>