<svg xmlns="http://www.w3.org/2000/svg" width="910.6" height="375.87" version="1.2" viewBox="0 0 682.95 281.9" xmlns:xlink="http://www.w3.org/1999/xlink"><defs><symbol id="a" overflow="visible"><path d="M-2.64-3.95c.43 0 .82.04 1.17.12.35.1.64.23.88.42.25.18.43.43.55.74s.2.7.2 1.16c0 .15-.02.3-.04.44 0 .15-.04.28-.07.4l-.1.3c-.05.1-.1.14-.12.17s-.05.07-.08.1c-.04 0-.1.03-.14.05-.05 0-.12.03-.2.03h-.74l-.26-.04c-.08-.02-.12-.05-.15-.08S-1.8-.2-1.8-.27c0-.03 0-.08.03-.14l.1-.2.1-.26c.02-.1.04-.22.04-.36 0-.12-.02-.24-.05-.34-.04-.1-.1-.2-.2-.25-.08-.08-.2-.12-.34-.15-.16-.04-.36-.07-.6-.07h-6.5c-.05 0-.1 0-.12-.04-.04-.03-.07-.08-.1-.16-.03-.07-.05-.17-.06-.3l-.02-.46.02-.46c0-.12.03-.22.06-.3.03-.08.06-.13.1-.17.03-.04.07-.05.1-.05z"/></symbol><symbol id="b" overflow="visible"><path d="M-.23-6.48c.07 0 .13.02.17.07.04.04.06.1.08.2.02.12.03.27.03.48 0 .22 0 .38-.03.5-.02.08-.04.15-.08.2-.04.03-.1.05-.17.05h-.52c.3.27.52.58.7.92.14.35.22.73.22 1.14 0 .35-.04.67-.14.96-.1.28-.23.53-.4.75-.18.22-.4.4-.66.5-.26.13-.57.18-.92.18-.4 0-.72-.07-1-.2-.28-.17-.5-.4-.7-.7-.18-.3-.3-.66-.4-1.1-.1-.43-.14-.94-.14-1.53v-.64h-.38c-.2 0-.38.04-.53.07-.17.05-.3.12-.4.22-.1.1-.18.2-.22.37-.05.15-.08.35-.08.6 0 .3.04.57.1.82l.23.63.24.45c.06.13.1.23.1.32 0 .05-.03.1-.06.14-.03.04-.08.08-.14.1l-.24.07c-.1.02-.2.02-.3.02-.15 0-.27 0-.35-.03-.1-.04-.18-.08-.24-.15-.07-.07-.15-.2-.23-.36-.1-.18-.18-.4-.25-.62-.07-.22-.13-.47-.18-.75-.05-.27-.07-.55-.07-.84 0-.52.05-.95.15-1.32.1-.37.25-.66.46-.9.22-.23.5-.4.82-.5.32-.1.7-.16 1.15-.16zm-2.8 1.8v.7c0 .3.03.55.08.76.04.2.1.38.2.52.1.13.2.23.3.3.14.05.28.07.43.07.28 0 .5-.08.64-.25.16-.17.24-.4.24-.72 0-.25-.06-.5-.2-.72-.12-.2-.32-.44-.57-.67z"/></symbol><symbol id="c" overflow="visible"><path d="M-6.8-6.94c.03 0 .07 0 .1.02h.1l.16.03.17.06 5.9 1.97c.1.02.16.05.2.1.07.03.1.1.14.2s.05.22.06.38l.02.65c0 .26 0 .48-.03.64l-.05.37c-.03.1-.07.16-.13.2-.05.04-.1.08-.2.1l-5.9 1.96-.26.08-.17.04h-.1c-.04 0-.08 0-.1-.03C-6.96-.2-7-.26-7-.33c-.03-.07-.05-.17-.06-.28l-.02-.46c0-.2 0-.36.03-.48 0-.13.03-.22.05-.28.02-.07.05-.13.1-.16l.13-.08 4.8-1.48.2-.05-.2-.04-4.8-1.47-.14-.1c-.05-.02-.08-.07-.1-.13-.02-.07-.04-.16-.05-.28-.02-.12-.03-.27-.03-.46 0-.18 0-.32.02-.44 0-.1.03-.2.06-.27.02-.06.05-.1.1-.12.02-.02.06-.04.1-.04z"/></symbol><symbol id="d" overflow="visible"><path d="M-.72-8.8c.18-.06.32-.1.42-.1.1 0 .2 0 .24.06.04.05.06.14.08.28.02.13.03.32.03.56 0 .25 0 .45-.02.6 0 .13-.03.24-.05.3-.02.08-.04.13-.07.16-.03.03-.1.05-.15.06l-1.9.65v3.56l1.84.6.18.07c.04.03.07.1.1.16l.05.3.02.5c0 .23 0 .4-.03.54-.02.12-.04.2-.1.27-.06.04-.14.05-.23.04-.1 0-.25-.04-.43-.1l-8.4-2.92c-.1-.03-.16-.07-.2-.1-.06-.05-.1-.1-.12-.2-.03-.08-.05-.2-.05-.34l-.02-.6c0-.3 0-.53.02-.7 0-.16.02-.3.05-.4.02-.1.06-.16.1-.2.06-.04.13-.08.23-.1zm-6.95 4.35l4.03 1.36v-2.68z"/></symbol><symbol id="e" overflow="visible"><path d="M-3.6-7.5c.58 0 1.1.06 1.57.2.46.1.85.3 1.2.53.3.25.56.54.74.9.18.35.27.76.27 1.2 0 .2-.02.4-.06.55-.02.15-.08.3-.15.46-.08.15-.17.3-.28.44-.1.15-.25.3-.4.45h3.07c.05 0 .1.02.13.05.04.02.07.07.1.14.02.08.04.17.05.3.02.12.04.26.04.44s-.02.32-.04.45c0 .13-.03.22-.06.3-.02.05-.05.1-.1.13-.02.03-.07.05-.12.05h-9.12c-.05 0-.1 0-.13-.03-.05-.03-.08-.07-.1-.13-.02-.06-.04-.14-.05-.25-.02-.1-.03-.22-.03-.37s0-.27.03-.38c0-.1.03-.18.05-.23.02-.07.05-.1.1-.14.02-.03.07-.04.12-.04h.76c-.2-.2-.36-.37-.5-.55-.16-.2-.28-.38-.37-.56-.1-.2-.17-.4-.23-.6-.05-.2-.07-.4-.07-.64 0-.48.1-.9.28-1.22.2-.33.45-.6.78-.82.32-.2.7-.37 1.14-.46.44-.1.9-.16 1.4-.16zm.12 1.92c-.27 0-.54.03-.8.06-.26.05-.5.12-.7.22-.18.1-.34.23-.46.4-.12.15-.2.35-.2.6 0 .13.04.25.08.38.03.12.1.23.17.36.1.1.2.24.34.37.12.15.3.3.48.43h2.16c.32-.25.57-.5.75-.73.18-.24.26-.48.26-.73 0-.24-.06-.45-.18-.6-.12-.2-.28-.33-.48-.44-.2-.1-.42-.18-.67-.23-.25-.05-.5-.08-.75-.08z"/></symbol><symbol id="f" overflow="visible"><path d="M-.34-5.75c.08.02.15.05.2.1.05.04.1.1.12.2.02.08.04.2.05.36l.02.58c0 .2 0 .38-.02.52v.34l-.05.24c-.02.06-.04.12-.07.15-.03.05-.06.08-.1.1l-.16.06-8.4 2.82c-.18.05-.32.1-.4.1-.1.02-.2 0-.25-.07-.06-.06-.1-.16-.1-.3l-.02-.62c0-.23 0-.4.02-.53 0-.13.02-.23.05-.3.02-.07.06-.12.1-.14.06-.03.12-.06.2-.08l7.3-2.3-7.27-2.28c-.1-.02-.15-.04-.2-.08-.06-.03-.1-.07-.13-.14s-.05-.17-.05-.3l-.02-.54c0-.23 0-.4.02-.53 0-.12.05-.2.1-.24.06-.05.14-.07.24-.05.1.02.25.06.4.12z"/></symbol><symbol id="g" overflow="visible"><path d="M-.27-12.08c.06 0 .1.02.14.05.04.02.07.07.1.14l.05.3c.02.1.03.26.03.44 0 .17 0 .32-.03.44l-.05.28c-.03.07-.06.1-.1.14-.03.03-.08.05-.14.05h-7.7v.02l7.7 2.73c.07.02.12.06.16.1.03.05.06.1.08.18.02.08.04.17.05.3l.02.42c0 .17 0 .3-.03.42l-.05.3c-.03.07-.06.13-.1.17-.03.03-.08.07-.14.08l-7.7 2.65h7.7c.06 0 .1.03.15.06.03 0 .06.06.1.13L0-2.4c.02.13.03.28.03.46s0 .33-.03.44l-.05.28c-.03.08-.06.13-.1.16-.03.02-.08.03-.14.03H-8.7c-.25 0-.44-.06-.58-.2-.13-.12-.2-.3-.2-.54v-1.25c0-.22.02-.42.06-.57.03-.16.1-.3.2-.42.07-.1.18-.2.33-.28.15-.08.3-.15.5-.22l5.67-2.04v-.03L-8.38-8.7c-.2-.06-.36-.13-.5-.2-.16-.07-.27-.16-.35-.27-.1-.1-.16-.2-.2-.35-.03-.13-.05-.3-.05-.47v-1.3c0-.13.02-.24.06-.34.03-.1.08-.17.15-.23.07-.05.14-.1.24-.13s.2-.05.33-.05z"/></symbol><symbol id="h" overflow="visible"><path d="M-.48-11.02c.1.04.2.08.28.13.06.06.1.14.15.24.03.1.05.25.07.4.02.17.03.37.03.62 0 .27 0 .5-.03.67-.02.17-.04.3-.07.4-.04.1-.1.16-.15.2-.07.05-.17.08-.28.1L-6.5-6.75v.02L-.48-5.3c.1.03.2.06.26.1.08.06.13.12.17.22.03.1.05.22.07.4.02.15.03.37.03.63 0 .3 0 .52-.03.68-.02.17-.04.3-.07.4-.04.1-.1.17-.15.2-.07.06-.17.1-.28.12L-8.78-.4l-.4.1c-.1 0-.17-.04-.23-.1-.06-.07-.1-.17-.1-.3l-.02-.6c0-.22 0-.4.02-.53 0-.13.02-.23.05-.3.02-.07.06-.1.1-.14.06-.03.13-.05.23-.07L-1.87-4l-7.2-1.73c-.1-.02-.17-.05-.23-.08-.06-.04-.1-.1-.14-.17-.03-.08-.05-.2-.06-.3l-.02-.54c0-.24 0-.42.02-.56 0-.14.02-.25.06-.33.03-.07.08-.13.14-.16l.22-.08 7.2-1.8-7.23-1.67c-.08 0-.14-.03-.2-.05-.06-.03-.1-.08-.14-.14-.03-.06-.05-.17-.06-.3l-.02-.52c0-.22 0-.4.02-.5 0-.13.04-.2.1-.27.05-.04.13-.06.23-.05.1 0 .25.02.44.06z"/></symbol><symbol id="i" overflow="visible"><path d="M-.25-2.77c.05 0 .1.02.14.05.02.02.05.07.07.14l.05.3c.02.12.03.26.03.44s0 .32-.03.45l-.05.3-.08.13c-.05.03-.1.05-.15.05h-6.52c-.05 0-.1-.02-.12-.05-.03-.03-.06-.08-.08-.14-.04-.08-.06-.17-.07-.3-.02-.12-.03-.26-.03-.44s0-.32.03-.44c0-.13.03-.22.07-.3.02-.07.05-.12.1-.14.02-.03.06-.05.1-.05zM-9-2.9c.38 0 .64.07.78.23.14.15.2.42.2.83 0 .4-.06.7-.2.84-.13.15-.38.22-.73.22-.38 0-.64-.07-.78-.22-.15-.16-.22-.44-.22-.86 0-.4.07-.68.22-.83.13-.13.38-.2.73-.2z"/></symbol><symbol id="j" overflow="visible"><path d="M-.25-7.16c.05 0 .1.02.14.05.02 0 .05.06.07.13l.05.28c.02.13.03.27.03.45s0 .33-.03.45l-.05.28c-.02.08-.05.13-.08.16l-.15.03h-3.73c-.32 0-.56.03-.74.08-.2.04-.34.1-.47.2-.12.1-.22.2-.28.35-.07.13-.1.3-.1.48 0 .23.08.47.25.7.17.25.42.5.74.75h4.35c.05 0 .1.02.14.05.02.02.05.07.07.14l.05.3c.02.12.03.26.03.44s0 .32-.03.45l-.05.3-.08.13c-.05.03-.1.05-.15.05h-6.53c-.05 0-.1 0-.13-.03-.05-.03-.08-.08-.1-.14-.02-.06-.04-.13-.05-.23-.02-.1-.03-.23-.03-.4s0-.27.03-.36c0-.1.03-.17.05-.23.02-.06.05-.1.1-.12.03-.03.07-.05.12-.05h.75c-.38-.36-.68-.73-.88-1.1-.2-.37-.3-.76-.3-1.17 0-.44.07-.82.22-1.12.14-.3.35-.54.6-.73.26-.2.55-.33.88-.4.34-.08.74-.13 1.22-.13z"/></symbol><symbol id="k" overflow="visible"><path d="M-.25-7.13c.05 0 .1.02.14.05.02.03.05.06.08.13.02.05.04.13.05.23l.02.38c0 .15 0 .28-.02.37 0 .1-.03.17-.05.24-.03.06-.06.1-.1.14-.03.03-.08.04-.13.04h-.72c.36.34.64.7.84 1.06.2.37.3.77.3 1.22 0 .5-.1.92-.28 1.26-.2.35-.47.63-.8.85-.32.22-.7.38-1.15.48-.43.1-.9.15-1.37.15-.58 0-1.1-.06-1.56-.18-.47-.13-.87-.3-1.2-.55-.32-.24-.58-.54-.76-.9-.17-.34-.26-.76-.26-1.23 0-.37.08-.7.23-1 .15-.3.36-.6.64-.88h-3.53c-.05 0-.1-.02-.12-.05-.04-.03-.07-.08-.1-.14-.03-.07-.05-.16-.06-.28-.02-.12-.03-.27-.03-.45s0-.32.03-.44c0-.13.03-.22.06-.28.03-.07.06-.13.1-.16.03-.03.07-.04.12-.04zM-4.6-5.28c-.34.26-.6.5-.78.75-.17.24-.26.5-.26.76 0 .25.06.45.2.63.1.17.26.3.46.4.2.1.42.2.67.24.24.05.5.08.75.08.28 0 .54-.02.8-.06.26-.06.5-.13.7-.22.2-.1.35-.24.47-.4.13-.17.2-.38.2-.63 0-.13-.03-.25-.06-.36-.04-.12-.1-.24-.2-.37-.07-.12-.18-.25-.3-.37-.15-.14-.3-.28-.5-.44z"/></symbol><symbol id="l" overflow="visible"><path d="M-3.58-7.53c.56 0 1.06.07 1.52.22.46.14.85.36 1.2.66.32.3.58.67.77 1.12.18.45.27.97.27 1.57 0 .58-.08 1.1-.23 1.53-.17.43-.4.78-.7 1.06-.32.28-.7.5-1.15.63-.45.13-.97.2-1.55.2C-4-.53-4.5-.6-4.97-.75c-.47-.14-.86-.37-1.2-.67-.32-.3-.57-.67-.75-1.1-.2-.46-.28-.98-.28-1.6 0-.57.08-1.08.25-1.5.15-.44.4-.8.7-1.08.3-.28.68-.5 1.13-.63.44-.13.96-.2 1.54-.2zm.06 1.9c-.3 0-.6.03-.87.08s-.5.13-.7.25c-.2.13-.36.3-.48.5-.1.2-.17.45-.17.75 0 .28.05.5.16.72.1.2.26.38.46.52.2.1.42.2.7.28.26.07.57.1.9.1.33 0 .63-.03.9-.08s.5-.13.7-.25c.2-.13.36-.3.47-.5.12-.2.17-.46.17-.77 0-.28-.05-.52-.15-.7-.1-.22-.25-.4-.44-.5-.18-.15-.4-.25-.68-.3-.27-.07-.58-.1-.94-.1z"/></symbol><symbol id="m" overflow="visible"><path d="M-6.8-10.92c.06 0 .12 0 .2.03.08.02.2.05.33.1l5.9 1.72c.1.03.16.07.2.1.07.04.1.1.14.18.03.1.05.2.06.35l.02.57c0 .25 0 .44-.03.6l-.05.36c-.03.08-.07.15-.13.2l-.2.06-3.97 1.1h-.06l.07.03 3.97 1 .2.1c.06.04.1.1.13.2.03.08.05.2.06.35l.02.58c0 .25 0 .44-.03.6l-.05.34c-.03.1-.07.15-.13.2-.05.03-.1.06-.2.07l-5.9 1.74-.33.1h-.2c-.05 0-.1 0-.12-.04-.04-.03-.07-.08-.1-.14l-.04-.28-.02-.45c0-.2 0-.36.02-.5 0-.1.03-.2.06-.27.02-.07.05-.1.1-.14.04-.03.08-.05.13-.06l4.8-1.3h.1l-.1-.03-4.8-1.22c-.05 0-.1-.02-.14-.05-.05-.04-.08-.1-.1-.16-.03-.07-.05-.15-.06-.27l-.02-.44c0-.2 0-.33.03-.45 0-.1.03-.2.05-.26.02-.08.05-.13.1-.15.02-.03.06-.05.1-.07l4.85-1.3.08-.02-.1-.02-4.8-1.25c-.05-.02-.1-.03-.14-.06-.05-.03-.08-.07-.1-.14-.03-.07-.05-.16-.06-.28l-.02-.45c0-.2 0-.34.02-.45 0-.12.02-.2.04-.27.03-.06.06-.1.1-.13.03-.03.07-.04.12-.04z"/></symbol><symbol id="n" overflow="visible"><path d="M-2.1-5.52c.38 0 .7.07 1 .2.27.14.5.34.7.6.18.25.32.56.42.9.1.35.15.72.15 1.12 0 .25-.02.5-.06.72-.02.2-.06.4-.12.6-.06.16-.1.3-.17.43-.05.1-.1.2-.16.25-.05.05-.13.1-.23.12-.1.03-.28.05-.5.05-.13 0-.24 0-.32-.02-.1 0-.17-.02-.22-.04-.05 0-.08-.03-.1-.06 0-.03-.03-.07-.03-.12 0-.05.04-.13.1-.24.06-.1.13-.23.2-.4.08-.14.14-.32.2-.53.07-.2.1-.44.1-.7 0-.17-.02-.32-.05-.44-.04-.13-.1-.24-.16-.34s-.14-.16-.23-.22c-.1-.05-.23-.07-.35-.07-.15 0-.27.04-.38.14-.1.1-.2.22-.26.37-.08.14-.15.3-.2.5l-.25.57c-.08.2-.17.4-.28.58-.1.2-.25.36-.4.52-.16.15-.35.26-.57.36-.22.08-.47.12-.78.12-.3 0-.6-.05-.86-.17-.26-.12-.48-.3-.67-.53-.2-.23-.34-.5-.45-.83-.1-.34-.15-.72-.15-1.13 0-.2 0-.4.04-.58l.1-.54c.06-.16.1-.3.15-.4.05-.1.1-.2.13-.23l.1-.1c.04-.03.1-.04.14-.05l.2-.02.27-.02c.13 0 .24 0 .33.02.08 0 .15 0 .2.03.04 0 .07.04.1.07.02.02.02.05.02.1 0 .04-.03.1-.08.2l-.18.36c-.06.13-.1.3-.15.48-.06.2-.1.4-.1.62 0 .17.02.3.06.44s.07.23.14.3c.06.08.14.14.23.18.1.03.17.05.27.05.15 0 .3-.05.4-.14.08-.1.17-.22.25-.37l.22-.53.24-.6c.08-.2.17-.38.3-.57.1-.2.22-.37.38-.52.15-.15.34-.27.56-.35.2-.1.47-.15.77-.15z"/></symbol><symbol id="o" overflow="visible"><path d="M.9-10.45c.18 0 .32 0 .43.03.1 0 .18.03.23.06.07.03.1.07.13.1l.02.1c0 .17-.05.4-.14.64-.1.27-.2.55-.38.85-.16.3-.37.62-.6.94-.24.3-.5.6-.82.86.1.23.2.5.27.82.08.32.12.67.12 1.07 0 .74-.1 1.38-.28 1.93-.2.55-.5 1-.88 1.36-.4.38-.9.65-1.52.84-.6.18-1.34.27-2.2.27-.76 0-1.44-.1-2.05-.27-.6-.2-1.13-.5-1.56-.88-.44-.38-.77-.86-1-1.42-.22-.57-.34-1.24-.34-2 0-.7.1-1.32.28-1.86.2-.55.48-1.02.88-1.4.4-.37.9-.65 1.5-.84.6-.2 1.3-.3 2.12-.3.43 0 .83.04 1.2.1.37.06.7.14 1.03.25.32.1.6.24.88.4.26.15.5.33.7.52.25-.3.45-.56.6-.8.13-.23.24-.43.3-.6.07-.15.12-.28.15-.38s.07-.16.12-.22c.06-.05.15-.08.27-.1.12-.04.3-.05.5-.05zm-5.67 2.92c-.48 0-.93.04-1.34.12-.42.07-.76.2-1.06.38-.3.2-.5.44-.67.75s-.23.7-.23 1.18.1.87.26 1.2c.18.3.42.56.72.76.3.2.64.34 1.03.42.4.08.82.1 1.25.1.53 0 1-.02 1.42-.1.4-.08.77-.22 1.07-.4.28-.2.5-.44.66-.75.15-.32.22-.7.22-1.18s-.1-.86-.27-1.17c-.16-.32-.4-.58-.7-.78-.3-.2-.66-.33-1.07-.4-.4-.1-.83-.13-1.3-.13z"/></symbol><symbol id="p" overflow="visible"><path d="M-.75-6.66c.14 0 .26.02.36.04.1 0 .18.02.24.04.06.03.1.06.13.1.02.03.03.07.03.12v4.75c0 .16-.05.3-.14.4-.1.12-.25.17-.47.17h-8.27c-.2 0-.36-.05-.46-.16-.1-.1-.15-.24-.15-.4v-4.73c0-.05 0-.1.04-.12.03-.03.07-.06.13-.08.05-.03.13-.05.22-.06h.72l.24.07c.05.02.1.05.12.08.02.03.03.07.03.12v3.38h2.3V-5.8c0-.05.03-.1.06-.12 0-.04.05-.07.12-.1.05-.03.12-.05.2-.06h.72c.1 0 .17.03.23.06s.1.06.1.1c.03.03.04.07.04.1v2.87h2.68v-3.4c0-.06.02-.1.05-.13.03-.04.08-.07.14-.1l.22-.04c.08-.02.2-.04.35-.04z"/></symbol><symbol id="q" overflow="visible"><path d="M-3.53-8.77c.58 0 1.1.1 1.56.27.46.17.85.42 1.17.75.32.32.56.73.72 1.22.17.5.25 1.05.25 1.7 0 .58-.07 1.12-.22 1.6-.15.46-.38.87-.68 1.2-.3.32-.68.57-1.13.75-.46.17-1 .25-1.6.25H-9.2c-.04 0-.08 0-.12-.03-.04-.03-.07-.08-.1-.16s-.05-.18-.06-.3L-9.52-2c0-.18 0-.33.02-.45 0-.13.03-.23.06-.3.03-.07.06-.12.1-.16.04-.04.08-.05.12-.05h5.6c.38 0 .7-.05.98-.14.27-.1.5-.22.7-.38.17-.18.3-.4.4-.63.1-.25.13-.52.13-.82 0-.3-.05-.57-.15-.8-.1-.25-.22-.46-.4-.62-.2-.17-.4-.3-.67-.38-.26-.1-.56-.14-.9-.14h-5.7c-.04 0-.08 0-.12-.05-.04-.04-.07-.1-.1-.16-.03-.07-.05-.17-.06-.3l-.02-.47c0-.17 0-.32.02-.44 0-.12.03-.22.06-.3.03-.06.06-.12.1-.15.04-.03.08-.05.12-.05z"/></symbol><symbol id="r" overflow="visible"><path d="M-.8-6.23h.36c.1.02.2.04.25.07.08.03.12.06.15.1.03.03.05.07.05.1v4.35c0 .16-.05.3-.14.4-.1.12-.25.17-.47.17h-8.62c-.04 0-.08-.02-.12-.05-.04-.03-.07-.08-.1-.15-.03-.07-.05-.18-.06-.3L-9.52-2l.02-.47c0-.12.03-.22.06-.3.03-.07.06-.12.1-.15.04-.03.08-.05.12-.05h7.63v-2.98c0-.04.02-.08.05-.1.03-.05.07-.08.13-.1.06-.04.15-.06.25-.07h.36z"/></symbol><symbol id="s" overflow="visible"><path d="M-.25-7.13c.05 0 .1.02.14.05.02.03.05.06.07.13l.05.25c.02.1.03.22.03.37s0 .3-.03.4l-.05.23c-.02.05-.05.1-.08.12-.05.03-.1.03-.15.03H-1c.4.37.68.74.88 1.1.2.4.3.77.3 1.17 0 .45-.08.83-.23 1.14-.14.3-.34.55-.6.73-.25.18-.55.32-.88.4-.33.07-.75.1-1.25.1h-4c-.05 0-.1 0-.13-.02C-6.96-.95-7-1-7-1.06l-.05-.28c-.02-.13-.03-.28-.03-.46s0-.33.03-.45c0-.1.03-.2.05-.28.02-.07.05-.12.1-.14.03-.03.07-.05.12-.05h3.7c.33 0 .6-.02.78-.06.18-.05.34-.12.47-.2.13-.1.23-.2.3-.35.06-.14.1-.3.1-.5 0-.22-.1-.46-.26-.7-.16-.24-.4-.5-.74-.75h-4.34c-.05 0-.1-.02-.13-.05-.05-.03-.08-.08-.1-.14-.02-.07-.04-.16-.05-.28-.02-.13-.03-.27-.03-.45s0-.32.03-.44c0-.13.03-.22.05-.28.02-.07.05-.13.1-.16.02-.03.07-.05.12-.05z"/></symbol><symbol id="t" overflow="visible"><path d="M-.38-6.6c.1-.03.16-.06.2-.06.06 0 .1.04.13.1.03.08.05.18.07.33.02.14.03.33.03.56 0 .22 0 .4-.02.53 0 .14-.03.25-.05.33-.02.06-.04.12-.07.16-.03.03-.06.05-.12.06l-2.3 1.22 2.3 1.2c.06.03.1.06.13.1.04.03.06.08.08.15.02.06.04.16.05.3l.02.47c0 .22 0 .4-.03.52-.02.12-.04.2-.07.27s-.07.1-.12.1c-.05 0-.12-.02-.2-.07L-3.6-2.1l-3 1.66c-.1.05-.17.07-.23.08-.06 0-.1-.03-.14-.1-.04-.06-.07-.17-.08-.3-.02-.14-.03-.33-.03-.57 0-.22 0-.4.02-.5 0-.15.02-.25.03-.33 0-.07.03-.12.06-.15l.13-.1 2.18-1.16-2.18-1.16-.1-.06c-.03-.03-.05-.08-.08-.14l-.04-.27-.02-.44c0-.22 0-.4.02-.52 0-.12.04-.2.08-.26.03-.06.07-.1.14-.1.05 0 .13.03.23.08l2.96 1.63z"/></symbol><symbol id="u" overflow="visible"><path d="M-2.55-7.16c.44 0 .83.08 1.16.24.35.15.63.37.87.65.23.3.4.66.53 1.08.1.44.17.93.17 1.5 0 .54-.06 1-.17 1.42-.1.4-.26.74-.47 1-.2.3-.46.5-.76.62-.3.14-.65.2-1.05.2-.27 0-.52-.03-.77-.1-.24-.08-.45-.2-.65-.36-.2-.17-.4-.37-.57-.6-.18-.23-.36-.5-.5-.82-.14.25-.3.48-.45.68-.16.2-.34.37-.53.52-.2.14-.4.24-.6.3-.24.1-.48.12-.74.12-.38 0-.72-.07-1.03-.2-.3-.13-.58-.33-.8-.6-.23-.27-.4-.6-.52-1-.13-.4-.2-.86-.2-1.4 0-.5.07-.95.18-1.33.1-.37.26-.68.47-.92.2-.24.45-.42.73-.53.3-.12.6-.17.96-.17.22 0 .44.03.66.1.2.08.4.2.6.33.2.14.4.3.57.5.17.2.33.42.47.67.16-.28.32-.55.5-.78.18-.24.37-.43.56-.6.2-.15.42-.28.66-.37.23-.1.48-.14.73-.14zm-4.6 2.13c-.15 0-.3.03-.44.08s-.26.13-.35.23c-.1.1-.16.24-.2.4-.06.14-.08.32-.08.54 0 .4.1.7.28.9.18.2.45.3.78.3.15 0 .3-.02.44-.06.12-.05.24-.13.35-.23.12-.12.24-.26.35-.43.12-.17.23-.38.36-.6-.2-.37-.43-.65-.67-.83-.24-.2-.5-.3-.8-.3zm4.74-.22c-.2 0-.36.03-.5.1-.15.06-.3.16-.4.3-.15.12-.28.28-.4.48-.13.18-.25.4-.38.67.13.23.25.43.38.6.1.17.24.3.37.43.14.1.28.2.42.25.14.05.3.08.48.08.37 0 .67-.12.87-.36.2-.25.3-.62.3-1.1 0-.5-.1-.85-.3-1.1-.22-.23-.5-.35-.86-.35z"/></symbol><symbol id="v" overflow="visible"><path d="M-3.17-7.16c.48 0 .93.08 1.34.24.4.15.76.36 1.05.64.3.28.53.63.7 1.05.17.4.25.9.25 1.43 0 .44-.05.83-.15 1.16-.1.32-.24.6-.43.84-.2.25-.43.44-.7.6-.26.15-.56.26-.9.36-.34.08-.7.14-1.1.18-.4.04-.82.05-1.26.05-.37 0-.76-.02-1.17-.06-.4-.04-.8-.1-1.2-.2-.38-.13-.76-.28-1.1-.47-.37-.2-.67-.43-.94-.73-.27-.3-.48-.67-.64-1.1-.16-.42-.24-.93-.24-1.5 0-.2 0-.4.03-.57 0-.2.05-.36.08-.52l.1-.4.12-.24.1-.07.15-.05c.05-.02.1-.03.18-.03h.63c.08 0 .16.03.22.05.06.02.1.05.13.08s.04.07.04.12c0 .06 0 .13-.05.22-.05.1-.08.2-.12.35l-.1.46c-.04.18-.05.4-.05.6 0 .4.07.75.22 1.03.15.27.35.5.6.67.26.17.55.3.88.38.33.08.67.12 1.05.12l-.2-.36c-.08-.15-.13-.3-.18-.46-.05-.16-.1-.34-.12-.53-.03-.2-.05-.4-.05-.62 0-.47.07-.88.2-1.22.13-.35.32-.63.57-.85.24-.2.54-.37.9-.48.33-.1.7-.16 1.13-.16zm.2 1.9c-.26 0-.48.02-.67.07-.2.06-.34.13-.47.23-.14.1-.24.23-.3.4-.07.15-.1.34-.1.57 0 .14 0 .27.03.4.02.13.06.26.1.38.05.13.1.25.17.38l.18.32c.53 0 .97-.03 1.32-.1.34-.05.62-.14.82-.25.22-.12.36-.26.44-.43.1-.17.13-.38.13-.6 0-.22-.05-.42-.14-.58-.08-.18-.2-.32-.34-.43-.16-.12-.33-.2-.53-.27-.22-.06-.44-.1-.68-.1z"/></symbol><symbol id="w" overflow="visible"><path d="M-3.7-4.16c.3 0 .5.03.6.08.12.06.18.14.18.25v3.05c0 .12-.06.2-.17.26-.1.06-.3.08-.6.08-.26 0-.45-.02-.57-.08-.1-.05-.17-.14-.17-.26v-3.05c0-.05.02-.1.05-.14.03-.04.07-.08.13-.1.06-.04.14-.06.24-.07l.34-.02z"/></symbol><symbol id="x" overflow="visible"><path d="M-6.6-7.52c.54 0 1 .1 1.4.25.42.16.76.4 1.04.72.28.32.5.7.66 1.18.15.46.22 1 .22 1.62v.8h3c.07 0 .12 0 .15.04.04.03.07.08.1.15l.05.3c0 .1.03.26.03.45s-.02.34-.03.47l-.05.3c-.03.07-.06.12-.1.15-.03.03-.08.05-.14.05H-8.8c-.22 0-.4-.06-.5-.17-.13-.13-.18-.3-.18-.5V-3.9c0-.22 0-.43.03-.63l.1-.73c.06-.3.16-.58.32-.86.15-.3.35-.54.58-.75.23-.2.5-.35.8-.46.32-.1.67-.16 1.06-.16zm.15 2c-.34 0-.6.07-.83.2-.22.1-.38.25-.47.43-.1.18-.16.35-.2.54-.02.2-.03.38-.03.58v.83h3.2v-.88c0-.3-.04-.55-.13-.76-.1-.2-.2-.37-.35-.5-.14-.13-.32-.23-.53-.3-.2-.08-.43-.12-.67-.12z"/></symbol><symbol id="y" overflow="visible"><path d="M-1.44-7.6c.13 0 .23 0 .3.02.1 0 .17.03.23.05.06 0 .1.03.15.05.04.02.1.06.16.12s.13.16.22.3c.1.16.17.35.26.58.08.2.14.47.2.76.05.28.08.6.08.9 0 .66-.1 1.25-.3 1.77-.2.53-.5.97-.9 1.33-.4.37-.9.65-1.5.84-.6.2-1.28.3-2.07.3-.82 0-1.54-.1-2.17-.3-.62-.23-1.14-.53-1.56-.92-.42-.38-.75-.84-.97-1.4-.22-.53-.32-1.12-.32-1.77 0-.27.02-.52.06-.76.04-.24.1-.47.17-.68.08-.2.17-.4.26-.57.1-.16.16-.28.23-.34.06-.08.1-.13.17-.15.04-.03.1-.05.17-.07l.23-.03h.72c.08 0 .17.03.24.07l.14.07c.02.02.03.07.03.12 0 .07-.03.17-.1.28-.1.1-.2.25-.3.42-.1.18-.2.4-.27.64-.1.25-.15.55-.15.9 0 .37.08.7.24 1 .16.3.38.54.67.74.27.2.62.37 1.02.5.4.1.85.14 1.36.14.56 0 1.05-.05 1.45-.17.4-.1.75-.27 1-.48.27-.23.47-.5.6-.8.12-.3.2-.63.2-1 0-.35-.05-.64-.12-.88-.08-.25-.17-.47-.26-.64-.1-.2-.2-.34-.26-.46-.1-.1-.13-.2-.13-.26 0-.04 0-.08.03-.1.02-.04.06-.07.13-.1l.24-.04h.42z"/></symbol></defs><g fill="#738ac7" stroke="#516391" stroke-width="2.14" stroke-miterlimit="10" stroke-linejoin="round"><path d="M463.05 1.07H566.4v224.9H463.04zM347.55 1.07H450.9v182.36H347.54zM232.06 1.07H335.4v139.8H232.06zM116.57 1.07H219.9v97.26H116.58zM1.07 1.07H104.4v54.7H1.08zM578.54 1.07h103.34v267.46H578.54z"/></g><path fill="#fff" stroke="#000" stroke-width="2.14" stroke-miterlimit="10" d="M590.7 13.23h79.02v30.4H590.7z" stroke-linejoin="round"/><use width="100%" height="100%" x="159.78" y="153.59" xlink:href="#a" transform="rotate(90 441.35 314.99)"/><use width="100%" height="100%" x="159.78" y="148.62" xlink:href="#b" transform="rotate(90 441.35 314.99)"/><use width="100%" height="100%" x="159.78" y="141.45" xlink:href="#c" transform="rotate(90 441.35 314.99)"/><use width="100%" height="100%" x="159.78" y="134.54" xlink:href="#b" transform="rotate(90 441.35 314.99)"/><use width="100%" height="100%" x="159.78" y="123.8" xlink:href="#d" transform="rotate(90 441.35 314.99)"/><g transform="rotate(90 441.35 314.99)"><use width="100%" height="100%" x="159.78" y="114.67" xlink:href="#e"/><use width="100%" height="100%" x="159.78" y="106.62" xlink:href="#e"/></g><path fill="#fff" stroke="#000" stroke-width="2.14" stroke-miterlimit="10" d="M590.7 55.78h79.02v30.4H590.7z" stroke-linejoin="round"/><g transform="rotate(90 441.35 314.99)"><use width="100%" height="100%" x="202.33" y="139.57" xlink:href="#a"/><use width="100%" height="100%" x="202.33" y="134.6" xlink:href="#f"/></g><use width="100%" height="100%" x="202.33" y="125.75" xlink:href="#g" transform="rotate(90 441.35 314.99)"/><path fill="#fff" stroke="#000" stroke-width="2.14" stroke-miterlimit="10" d="M590.7 98.33h79.02v30.4H590.7z" stroke-linejoin="round"/><use width="100%" height="100%" x="244.88" y="155.42" xlink:href="#h" transform="rotate(90 441.35 314.99)"/><use width="100%" height="100%" x="244.88" y="141.73" xlink:href="#i" transform="rotate(90 441.35 314.99)"/><g transform="rotate(90 441.35 314.99)"><use width="100%" height="100%" x="244.88" y="137.97" xlink:href="#j"/><use width="100%" height="100%" x="244.88" y="129.92" xlink:href="#k"/><use width="100%" height="100%" x="244.88" y="121.86" xlink:href="#l"/></g><use width="100%" height="100%" x="244.88" y="113.82" xlink:href="#m" transform="rotate(90 441.35 314.99)"/><use width="100%" height="100%" x="244.88" y="102.77" xlink:href="#n" transform="rotate(90 441.35 314.99)"/><path fill="#fff" stroke="#000" stroke-width="2.14" stroke-miterlimit="10" d="M590.7 140.88h79.02v30.4H590.7z" stroke-linejoin="round"/><g transform="rotate(90 441.35 314.99)"><use width="100%" height="100%" x="287.43" y="146.41" xlink:href="#o"/><use width="100%" height="100%" x="287.43" y="136.08" xlink:href="#p"/></g><g transform="rotate(90 441.35 314.99)"><use width="100%" height="100%" x="287.43" y="128.7" xlink:href="#g"/><use width="100%" height="100%" x="287.43" y="115.54" xlink:href="#q"/></g><path fill="#fff" stroke="#000" stroke-width="2.14" stroke-miterlimit="10" d="M590.7 183.43h79.02v30.4H590.7z" stroke-linejoin="round"/><use width="100%" height="100%" x="329.98" y="142.59" xlink:href="#r" transform="rotate(90 441.35 314.99)"/><use width="100%" height="100%" x="329.98" y="136.28" xlink:href="#i" transform="rotate(90 441.35 314.99)"/><g transform="rotate(90 441.35 314.99)"><use width="100%" height="100%" x="329.98" y="132.52" xlink:href="#j"/><use width="100%" height="100%" x="329.98" y="124.47" xlink:href="#s"/><use width="100%" height="100%" x="329.98" y="116.41" xlink:href="#t"/></g><path fill="#fff" stroke="#000" stroke-width="2.14" stroke-miterlimit="10" d="M590.7 225.98h79.02v30.4H590.7z" stroke-linejoin="round"/><g transform="rotate(90 441.35 314.99)"><use width="100%" height="100%" x="372.54" y="147.42" xlink:href="#t"/><use width="100%" height="100%" x="372.54" y="140.57" xlink:href="#u"/></g><use width="100%" height="100%" x="372.54" y="132.92" xlink:href="#v" transform="rotate(90 441.35 314.99)"/><use width="100%" height="100%" x="372.54" y="125.27" xlink:href="#w" transform="rotate(90 441.35 314.99)"/><g transform="rotate(90 441.35 314.99)"><use width="100%" height="100%" x="372.54" y="120.71" xlink:href="#x"/><use width="100%" height="100%" x="372.54" y="112.65" xlink:href="#y"/></g><path fill="#fff" stroke="#000" stroke-width="2.14" stroke-miterlimit="10" d="M475.2 13.23h79.02v30.4H475.2z" stroke-linejoin="round"/><g><use width="100%" height="100%" x="159.78" y="269.08" xlink:href="#a" transform="rotate(90 441.35 314.99)"/><use width="100%" height="100%" x="159.78" y="264.11" xlink:href="#b" transform="rotate(90 441.35 314.99)"/><use width="100%" height="100%" x="159.78" y="256.94" xlink:href="#c" transform="rotate(90 441.35 314.99)"/><use width="100%" height="100%" x="159.78" y="250.04" xlink:href="#b" transform="rotate(90 441.35 314.99)"/><use width="100%" height="100%" x="159.78" y="239.3" xlink:href="#d" transform="rotate(90 441.35 314.99)"/><g transform="rotate(90 441.35 314.99)"><use width="100%" height="100%" x="159.78" y="230.17" xlink:href="#e"/><use width="100%" height="100%" x="159.78" y="222.11" xlink:href="#e"/></g></g><g><path fill="#fff" stroke="#000" stroke-width="2.14" stroke-miterlimit="10" d="M475.2 55.78h79.02v30.4H475.2z" stroke-linejoin="round"/><g transform="rotate(90 441.35 314.99)"><use width="100%" height="100%" x="202.33" y="255.06" xlink:href="#a"/><use width="100%" height="100%" x="202.33" y="250.09" xlink:href="#f"/></g><use width="100%" height="100%" x="202.33" y="241.24" xlink:href="#g" transform="rotate(90 441.35 314.99)"/><path fill="#fff" stroke="#000" stroke-width="2.14" stroke-miterlimit="10" d="M475.2 98.33h79.02v30.4H475.2z" stroke-linejoin="round"/></g><g><use width="100%" height="100%" x="244.88" y="270.92" xlink:href="#h" transform="rotate(90 441.35 314.99)"/><use width="100%" height="100%" x="244.88" y="257.22" xlink:href="#i" transform="rotate(90 441.35 314.99)"/><g transform="rotate(90 441.35 314.99)"><use width="100%" height="100%" x="244.88" y="253.46" xlink:href="#j"/><use width="100%" height="100%" x="244.88" y="245.41" xlink:href="#k"/><use width="100%" height="100%" x="244.88" y="237.36" xlink:href="#l"/></g><use width="100%" height="100%" x="244.88" y="229.32" xlink:href="#m" transform="rotate(90 441.35 314.99)"/><use width="100%" height="100%" x="244.88" y="218.27" xlink:href="#n" transform="rotate(90 441.35 314.99)"/></g><g><path fill="#fff" stroke="#000" stroke-width="2.14" stroke-miterlimit="10" d="M475.2 140.88h79.02v30.4H475.2z" stroke-linejoin="round"/><g transform="rotate(90 441.35 314.99)"><use width="100%" height="100%" x="287.43" y="261.91" xlink:href="#o"/><use width="100%" height="100%" x="287.43" y="251.57" xlink:href="#p"/></g><g transform="rotate(90 441.35 314.99)"><use width="100%" height="100%" x="287.43" y="244.19" xlink:href="#g"/><use width="100%" height="100%" x="287.43" y="231.03" xlink:href="#q"/></g><path fill="#fff" stroke="#000" stroke-width="2.14" stroke-miterlimit="10" d="M359.7 13.23h79.03v30.4H359.7z" stroke-linejoin="round"/></g><g><use width="100%" height="100%" x="159.78" y="384.58" xlink:href="#a" transform="rotate(90 441.35 314.99)"/><use width="100%" height="100%" x="159.78" y="379.61" xlink:href="#b" transform="rotate(90 441.35 314.99)"/><use width="100%" height="100%" x="159.78" y="372.44" xlink:href="#c" transform="rotate(90 441.35 314.99)"/><use width="100%" height="100%" x="159.78" y="365.53" xlink:href="#b" transform="rotate(90 441.35 314.99)"/><use width="100%" height="100%" x="159.78" y="354.79" xlink:href="#d" transform="rotate(90 441.35 314.99)"/><g transform="rotate(90 441.35 314.99)"><use width="100%" height="100%" x="159.78" y="345.66" xlink:href="#e"/><use width="100%" height="100%" x="159.78" y="337.61" xlink:href="#e"/></g></g><g><path fill="#fff" stroke="#000" stroke-width="2.14" stroke-miterlimit="10" d="M359.7 55.78h79.03v30.4H359.7z" stroke-linejoin="round"/><g transform="rotate(90 441.35 314.99)"><use width="100%" height="100%" x="202.33" y="370.56" xlink:href="#a"/><use width="100%" height="100%" x="202.33" y="365.59" xlink:href="#f"/></g><use width="100%" height="100%" x="202.33" y="356.74" xlink:href="#g" transform="rotate(90 441.35 314.99)"/><path fill="#fff" stroke="#000" stroke-width="2.14" stroke-miterlimit="10" d="M359.7 98.33h79.03v30.4H359.7z" stroke-linejoin="round"/></g><g><use width="100%" height="100%" x="244.88" y="386.41" xlink:href="#h" transform="rotate(90 441.35 314.99)"/><use width="100%" height="100%" x="244.88" y="372.72" xlink:href="#i" transform="rotate(90 441.35 314.99)"/><g transform="rotate(90 441.35 314.99)"><use width="100%" height="100%" x="244.88" y="368.96" xlink:href="#j"/><use width="100%" height="100%" x="244.88" y="360.9" xlink:href="#k"/><use width="100%" height="100%" x="244.88" y="352.85" xlink:href="#l"/></g><use width="100%" height="100%" x="244.88" y="344.81" xlink:href="#m" transform="rotate(90 441.35 314.99)"/><use width="100%" height="100%" x="244.88" y="333.76" xlink:href="#n" transform="rotate(90 441.35 314.99)"/></g><path fill="#fff" stroke="#000" stroke-width="2.14" stroke-miterlimit="10" d="M244.22 13.23h79.02v30.4h-79.02z" stroke-linejoin="round"/><g><use width="100%" height="100%" x="159.78" y="500.07" xlink:href="#a" transform="rotate(90 441.35 314.99)"/><use width="100%" height="100%" x="159.78" y="495.1" xlink:href="#b" transform="rotate(90 441.35 314.99)"/><use width="100%" height="100%" x="159.78" y="487.93" xlink:href="#c" transform="rotate(90 441.35 314.99)"/><use width="100%" height="100%" x="159.78" y="481.02" xlink:href="#b" transform="rotate(90 441.35 314.99)"/><use width="100%" height="100%" x="159.78" y="470.28" xlink:href="#d" transform="rotate(90 441.35 314.99)"/><g transform="rotate(90 441.35 314.99)"><use width="100%" height="100%" x="159.78" y="461.16" xlink:href="#e"/><use width="100%" height="100%" x="159.78" y="453.1" xlink:href="#e"/></g></g><g><path fill="#fff" stroke="#000" stroke-width="2.14" stroke-miterlimit="10" d="M244.22 55.78h79.02v30.4h-79.02z" stroke-linejoin="round"/><g transform="rotate(90 441.35 314.99)"><use width="100%" height="100%" x="202.33" y="486.05" xlink:href="#a"/><use width="100%" height="100%" x="202.33" y="481.08" xlink:href="#f"/></g><use width="100%" height="100%" x="202.33" y="472.23" xlink:href="#g" transform="rotate(90 441.35 314.99)"/><path fill="#fff" stroke="#000" stroke-width="2.14" stroke-miterlimit="10" d="M244.22 98.33h79.02v30.4h-79.02z" stroke-linejoin="round"/></g><g><use width="100%" height="100%" x="244.88" y="501.9" xlink:href="#h" transform="rotate(90 441.35 314.99)"/><use width="100%" height="100%" x="244.88" y="488.21" xlink:href="#i" transform="rotate(90 441.35 314.99)"/><g transform="rotate(90 441.35 314.99)"><use width="100%" height="100%" x="244.88" y="484.45" xlink:href="#j"/><use width="100%" height="100%" x="244.88" y="476.4" xlink:href="#k"/><use width="100%" height="100%" x="244.88" y="468.34" xlink:href="#l"/></g><use width="100%" height="100%" x="244.88" y="460.3" xlink:href="#m" transform="rotate(90 441.35 314.99)"/><use width="100%" height="100%" x="244.88" y="449.25" xlink:href="#n" transform="rotate(90 441.35 314.99)"/></g><path fill="#fff" stroke="#000" stroke-width="2.14" stroke-miterlimit="10" d="M128.72 13.23h79.02v30.4h-79.02z" stroke-linejoin="round"/><g><use width="100%" height="100%" x="159.78" y="615.56" xlink:href="#a" transform="rotate(90 441.35 314.99)"/><use width="100%" height="100%" x="159.78" y="610.6" xlink:href="#b" transform="rotate(90 441.35 314.99)"/><use width="100%" height="100%" x="159.78" y="603.42" xlink:href="#c" transform="rotate(90 441.35 314.99)"/><use width="100%" height="100%" x="159.78" y="596.52" xlink:href="#b" transform="rotate(90 441.35 314.99)"/><use width="100%" height="100%" x="159.78" y="585.78" xlink:href="#d" transform="rotate(90 441.35 314.99)"/><g transform="rotate(90 441.35 314.99)"><use width="100%" height="100%" x="159.78" y="576.65" xlink:href="#e"/><use width="100%" height="100%" x="159.78" y="568.6" xlink:href="#e"/></g></g><g><path fill="#fff" stroke="#000" stroke-width="2.14" stroke-miterlimit="10" d="M128.72 55.78h79.02v30.4h-79.02z" stroke-linejoin="round"/><g transform="rotate(90 441.35 314.99)"><use width="100%" height="100%" x="202.33" y="601.54" xlink:href="#a"/><use width="100%" height="100%" x="202.33" y="596.58" xlink:href="#f"/></g><use width="100%" height="100%" x="202.33" y="587.72" xlink:href="#g" transform="rotate(90 441.35 314.99)"/><path fill="#fff" stroke="#000" stroke-width="2.14" stroke-miterlimit="10" d="M13.23 13.23h79.02v30.4H13.23z" stroke-linejoin="round"/></g><g><use width="100%" height="100%" x="159.78" y="731.06" xlink:href="#a" transform="rotate(90 441.35 314.99)"/><use width="100%" height="100%" x="159.78" y="726.09" xlink:href="#b" transform="rotate(90 441.35 314.99)"/><use width="100%" height="100%" x="159.78" y="718.92" xlink:href="#c" transform="rotate(90 441.35 314.99)"/><use width="100%" height="100%" x="159.78" y="712.01" xlink:href="#b" transform="rotate(90 441.35 314.99)"/><use width="100%" height="100%" x="159.78" y="701.27" xlink:href="#d" transform="rotate(90 441.35 314.99)"/><g transform="rotate(90 441.35 314.99)"><use width="100%" height="100%" x="159.78" y="692.14" xlink:href="#e"/><use width="100%" height="100%" x="159.78" y="684.09" xlink:href="#e"/></g></g><path fill="#fff" stroke="#000" stroke-width="2.14" stroke-miterlimit="10" d="M475.2 183.43h79.02v30.4H475.2z" stroke-linejoin="round"/><g><use width="100%" height="100%" x="329.98" y="258.08" xlink:href="#r" transform="rotate(90 441.35 314.99)"/><use width="100%" height="100%" x="329.98" y="251.77" xlink:href="#i" transform="rotate(90 441.35 314.99)"/><g transform="rotate(90 441.35 314.99)"><use width="100%" height="100%" x="329.98" y="248.01" xlink:href="#j"/><use width="100%" height="100%" x="329.98" y="239.96" xlink:href="#s"/><use width="100%" height="100%" x="329.98" y="231.91" xlink:href="#t"/></g></g><g><path fill="#fff" stroke="#000" stroke-width="2.14" stroke-miterlimit="10" d="M359.7 140.88h79.03v30.4H359.7z" stroke-linejoin="round"/><g transform="rotate(90 441.35 314.99)"><use width="100%" height="100%" x="287.43" y="377.4" xlink:href="#o"/><use width="100%" height="100%" x="287.43" y="367.07" xlink:href="#p"/></g><g transform="rotate(90 441.35 314.99)"><use width="100%" height="100%" x="287.43" y="359.68" xlink:href="#g"/><use width="100%" height="100%" x="287.43" y="346.53" xlink:href="#q"/></g><path fill="#7dcf3a" stroke="#5c9928" stroke-width="2.14" stroke-miterlimit="10" d="M463.05 232.8H566.4V281H463.04z" stroke-linejoin="round"/><path fill="#fff" stroke="#000" stroke-width="2.14" stroke-miterlimit="10" d="M475.2 244.22h79.02v27.63H475.2z" stroke-linejoin="round"/><g transform="rotate(90 441.35 314.99)"><use width="100%" height="100%" x="389.39" y="252.58" xlink:href="#f"/><use width="100%" height="100%" x="389.39" y="243.72" xlink:href="#g"/></g><path fill="#7dcf3a" stroke="#5c9928" stroke-width="2.14" stroke-miterlimit="10" d="M347.55 190.47H450.9v90.36H347.54z" stroke-linejoin="round"/><path fill="#fff" stroke="#000" stroke-width="2.14" stroke-miterlimit="10" d="M359.7 207.74h79.03v63.7H359.7z" stroke-linejoin="round"/><g transform="rotate(90 441.35 314.99)"><use width="100%" height="100%" x="370.95" y="368.07" xlink:href="#f"/><use width="100%" height="100%" x="370.95" y="359.21" xlink:href="#g"/></g><path fill="#7dcf3a" stroke="#5c9928" stroke-width="2.14" stroke-miterlimit="10" d="M232.06 148.3H335.4v132.5H232.06z" stroke-linejoin="round"/><path fill="#fff" stroke="#000" stroke-width="2.14" stroke-miterlimit="10" d="M244.22 165.2h79.02V271h-79.02z" stroke-linejoin="round"/><g transform="rotate(90 441.35 314.99)"><use width="100%" height="100%" x="349.47" y="483.57" xlink:href="#f"/><use width="100%" height="100%" x="349.47" y="474.71" xlink:href="#g"/></g><path fill="#7dcf3a" stroke="#5c9928" stroke-width="2.14" stroke-miterlimit="10" d="M116.57 106.08H219.9v174.64H116.58z" stroke-linejoin="round"/><path fill="#fff" stroke="#000" stroke-width="2.14" stroke-miterlimit="10" d="M128.72 122.64h79.02V270.6h-79.02z" stroke-linejoin="round"/><g transform="rotate(90 441.35 314.99)"><use width="100%" height="100%" x="327.99" y="599.06" xlink:href="#f"/><use width="100%" height="100%" x="327.99" y="590.2" xlink:href="#g"/></g><path fill="#7dcf3a" stroke="#5c9928" stroke-width="2.14" stroke-miterlimit="10" d="M1.07 63.84H104.4v216.78H1.08z" stroke-linejoin="round"/><path fill="#fff" stroke="#000" stroke-width="2.14" stroke-miterlimit="10" d="M13.23 80.1h79.02v190.1H13.23z" stroke-linejoin="round"/><g transform="rotate(90 441.35 314.99)"><use width="100%" height="100%" x="306.51" y="714.55" xlink:href="#f"/><use width="100%" height="100%" x="306.51" y="705.69" xlink:href="#g"/></g></g></svg>