<svg xmlns="http://www.w3.org/2000/svg" width="360" height="404"><g class="node" transform="translate(4 400)"><ellipse cx="118.7" cy="-90" fill="#fff" fill-opacity=".8" stroke="#000" rx="57.3" ry="18"/><text x="118.7" y="-85.8" font-family="Times, serif" font-size="14" text-anchor="middle">Data Center</text></g><g class="node" transform="translate(4 400)"><ellipse cx="251.7" cy="-90" fill="#fff" fill-opacity=".8" stroke="#000" rx="57.4" ry="18"/><text x="251.7" y="-85.8" font-family="Times, serif" font-size="14" text-anchor="middle">BP Instance</text></g><g class="node" transform="translate(4 400)"><ellipse cx="197.7" cy="-18" fill="#fff" fill-opacity=".8" stroke="#000" rx="44.6" ry="18"/><text x="197.7" y="-13.8" font-family="Times, serif" font-size="14" text-anchor="middle">Service1</text></g><g stroke="#000" class="edge"><path fill="none" d="M242.3 327.8l-21.6 28.8"/><path d="M223.5 358.8l-8.8 6 3.2-10.2 5.3 4.2z"/></g><g class="node" transform="translate(4 400)"><ellipse cx="305.7" cy="-18" fill="#fff" fill-opacity=".8" stroke="#000" rx="44.6" ry="18"/><text x="305.7" y="-13.8" font-family="Times, serif" font-size="14" text-anchor="middle">Service2</text></g><g stroke="#000" class="edge"><path fill="none" d="M269 327.8l21.7 28.8"/><path d="M293.5 354.6l3.2 10-8.7-5.6 5.5-4.2z"/></g><g class="node" transform="translate(4 400)"><ellipse cx="86.7" cy="-378" fill="#fff" fill-opacity=".8" stroke="#000" rx="37.1" ry="18"/><text x="86.7" y="-373.8" font-family="Times, serif" font-size="14" text-anchor="middle">Nutzer</text></g><g class="node" transform="translate(4 400)"><ellipse cx="42.7" cy="-306" fill="#fff" fill-opacity=".8" stroke="#000" rx="42.9" ry="18"/><text x="42.7" y="-301.8" font-family="Times, serif" font-size="14" text-anchor="middle">Website</text></g><g stroke="#000" class="edge"><path fill="none" d="M80 39.4L62.7 67.8"/><path d="M65.6 69.8l-8.2 6.7L59.6 66l6 4z"/></g><g class="node" transform="translate(4 400)"><ellipse cx="130.7" cy="-306" fill="#fff" fill-opacity=".8" stroke="#000" rx="27" ry="18"/><text x="130.7" y="-301.8" font-family="Times, serif" font-size="14" text-anchor="middle">API</text></g><g stroke="#000" class="edge"><path fill="none" d="M101.3 39.4l17.8 29"/><path d="M122.2 67l2.2 10.2-8.2-6.7 6-3.6z"/></g><g class="node" transform="translate(4 400)"><ellipse cx="130.7" cy="-234" fill="#fff" fill-opacity=".8" stroke="#000" rx="51" ry="18"/><text x="130.7" y="-229.8" font-family="Times, serif" font-size="14" text-anchor="middle">Controller</text></g><g stroke="#000" class="edge"><path fill="none" d="M134.7 112.2v25.4"/><path d="M138.2 137.6l-3.5 10-3.5-10z"/></g><g class="node" transform="translate(4 400)"><ellipse cx="77.7" cy="-162" fill="#fff" fill-opacity=".8" stroke="#000" rx="42.9" ry="18"/><text x="77.7" y="-157.8" font-family="Times, serif" font-size="14" text-anchor="middle">Monitor</text></g><g stroke="#000" class="edge"><path fill="none" d="M121.8 183.4l-21.4 29.2"/><path d="M103 214.8l-8.6 6 3-10.2 5.7 4.2z"/></g><g class="node" transform="translate(4 400)"><ellipse cx="184.7" cy="-162" fill="#fff" fill-opacity=".8" stroke="#000" rx="45.8" ry="18"/><text x="184.7" y="-157.8" font-family="Times, serif" font-size="14" text-anchor="middle">Executor</text></g><g stroke="#000" class="edge"><path fill="none" d="M147.7 183.4l22 29.2"/><path d="M172.5 210.6l3.2 10-8.8-5.8 5.3-4.2z"/></g><g stroke="#000" class="edge"><path fill="none" d="M173 255c-8 9-18.3 20-27.4 30"/><path d="M148 287.6l-9.3 5 4-9.8z"/></g><g stroke="#000" class="edge"><path fill="none" d="M204.6 255l27.8 30"/><path d="M235.2 283l4.2 9.6-9.3-5 5.4-4.7z"/></g></svg>